<?xml version="1.0" encoding="UTF-8"?>
<svg width="500px" height="500px" viewBox="0 0 22 22" version="1.1" xmlns="http://www.w3.org/2000/svg" xmlns:xlink="http://www.w3.org/1999/xlink">
    <!-- Generator: Sketch 50.2 (55047) - http://www.bohemiancoding.com/sketch -->
    <title>币种logo copy 6</title>
    <desc>Created with Sketch.</desc>
    <defs>
        <linearGradient x1="50%" y1="0%" x2="50%" y2="100%" id="linearGradient-1">
            <stop stop-color="#FBD249" offset="0%"></stop>
            <stop stop-color="#F5A623" offset="100%"></stop>
        </linearGradient>
    </defs>
    <g id="Page-1" stroke="none" stroke-width="1" fill="none" fill-rule="evenodd">
        <g id="首页夜间版" transform="translate(-261.000000, -981.000000)">
            <g id="Group-55" transform="translate(51.000000, 972.000000)">
                <g id="Group-69" transform="translate(1.000000, 0.000000)">
                    <g id="Group-72" transform="translate(159.000000, 0.000000)">
                        <g id="Group-14" transform="translate(50.000000, 9.000000)">
                            <g id="币种logo-copy-6">
                                <path d="M11,0 C17.0751322,3.71994563e-16 22,4.92486775 22,11 C22,17.0751322 17.0751322,22 11,22 C4.92486775,22 7.43989126e-16,17.0751322 0,11 C-7.43989126e-16,4.92486775 4.92486775,1.11598369e-15 11,0 Z" id="Shape" fill="url(#linearGradient-1)" fill-rule="nonzero"></path>
                                <path d="M13.2135769,15.9999546 C12.9950359,16.0287824 12.8468934,16.1984583 12.8465729,16.4193809 L12.8465729,17.6829635 C12.8465729,17.9284412 12.6642172,18.1077428 12.4143715,18.1077428 L11.5733856,18.1077428 C11.4209541,18.1077428 11.2650717,18.0405108 11.1464098,17.9241686 C11.0277726,17.8072862 10.9594939,17.6541604 10.9594939,17.5047424 L10.9594939,16.7085913 C10.9594939,16.5591733 10.8911906,16.4054827 10.7725287,16.2896807 C10.6544338,16.1738786 10.4977873,16.1066712 10.3456516,16.1066712 L10.1785291,16.1066712 C9.92836303,16.1066712 9.74595796,16.2854081 9.7462291,16.5303455 L9.7462291,17.682939 C9.74595796,17.9284167 9.56384869,18.1077182 9.3139784,18.1077182 L8.47269666,18.1077182 C8.32056097,18.1077182 8.16416095,18.0404863 8.04579485,17.9241441 C7.92713296,17.8072616 7.85882966,17.6541358 7.85912545,17.5047178 L7.85882966,16.1066467 L5.61389164,16.1066467 C5.46175596,16.1066467 5.30533129,16.0394147 5.18723633,15.9230725 C5.06859909,15.8067303 5,15.6535799 5,15.5041619 L5.00027114,15.0756748 C5.00027114,14.8312776 5.18267621,14.651976 5.43284229,14.651976 L5.61440928,14.651976 C6.52690294,14.651976 6.62628906,14.5030982 6.62653555,13.6925578 L6.62628906,7.42792914 C6.62653555,6.61792893 6.52690294,6.46902659 5.61413814,6.46902659 C5.46200245,6.46902659 5.30533129,6.4023103 5.18723633,6.28599262 C5.06859909,6.16967495 5,6.01598437 5,5.86659093 L5,5.76412236 C5,5.33082246 5.32246258,5.01386478 5.76467161,5.01386478 L7.42652966,5.01386478 C7.67669574,5.01386478 7.85880501,4.83561906 7.8591008,4.59016594 L7.8591008,3.78652551 C7.85880501,3.33137154 8.19682132,3 8.66072177,3 C8.92962134,3 9.20628546,3.11845397 9.41600199,3.32442243 C9.62492974,3.52933503 9.74598261,3.80042371 9.74598261,4.06507895 L9.74598261,4.41192022 C9.74625375,4.56133821 9.81453241,4.71448859 9.93292315,4.8302906 C10.0515604,4.94714848 10.2079851,5.01386478 10.3600961,5.01386478 L10.5269967,5.01386478 C10.7771382,5.01386478 10.9595432,4.83561906 10.9595432,4.59016594 L10.9595432,3.74971736 C10.9595432,3.31587725 11.2820305,3 11.7238944,3 L11.7611642,3 C12.0303103,3 12.3067032,3.11845397 12.5164691,3.32442243 C12.725594,3.52933503 12.846425,3.80042371 12.8466715,4.06507895 L12.846425,4.5698834 C12.8466715,4.84524468 13.0743821,5.10884404 13.3587614,5.16274256 C14.9376498,5.4642305 15.7199457,6.23852755 15.7202661,7.62643285 C15.7199457,8.50049741 15.301893,9.22728027 14.4965253,9.74379752 C14.3497632,9.83772091 14.2828403,10.0138058 14.3208249,10.2016526 C14.3593765,10.3894748 14.4973388,10.5602557 14.6805573,10.6456094 C15.7545534,11.1461658 16.2843168,11.9380443 16.2843168,13.0644866 C16.2842182,14.8793565 15.2902585,15.7246179 13.2135769,15.9999546 Z M10.5265494,9.39132494 L10.6708411,9.39132494 C12.2566846,9.39132494 12.9777951,8.93326494 12.9777951,7.84618335 C12.9777951,6.78966406 12.2927441,6.37996512 10.7427192,6.37996512 L10.3294132,6.37996512 C10.0577218,6.37996512 9.85991631,6.55045834 9.85962184,6.78352818 L9.85962184,8.81621479 C9.85991631,8.95921364 9.93436441,9.10528042 10.0629687,9.21624152 C10.1914928,9.32720263 10.3610824,9.39132494 10.5265494,9.39132494 Z M10.686861,11.1981408 L10.2742929,11.1981408 C10.0344789,11.1981408 9.85962184,11.376071 9.85962184,11.6205503 L9.85962184,14.2098642 C9.85988176,14.3600717 9.925335,14.5124117 10.0391102,14.6285234 C10.1525782,14.7446597 10.3025063,14.8117726 10.4483229,14.8117726 L10.7030234,14.8117726 C12.246113,14.8117726 12.9775588,14.3004348 12.9777951,13.0294806 C12.9775824,11.7254847 12.2617792,11.1981408 10.686861,11.1981408 Z" id="Combined-Shape" fill="#FFFFFF"></path>
                            </g>
                        </g>
                    </g>
                </g>
            </g>
        </g>
    </g>
</svg>
