<?xml version="1.0" encoding="utf-8"?>
<!-- Generator: Adobe Illustrator 21.0.0, SVG Export Plug-In . SVG Version: 6.00 Build 0)  -->
<svg version="1.1" id="图层_1" xmlns="http://www.w3.org/2000/svg" xmlns:xlink="http://www.w3.org/1999/xlink" x="0px" y="0px"
	 viewBox="0 0 20 20" style="enable-background:new 0 0 20 20;" xml:space="preserve">
<style type="text/css">
	.st0{fill:#5339EA;}
	.st1{fill:#5AF0BD;}
</style>
<title>图标</title>
<g>
	<path class="st0" d="M15,10.9c0,2.4-2,4.3-4.5,4.3s-4.5-1.9-4.5-4.3s2-4.3,4.5-4.3S15,8.5,15,10.9 M7.5,10.9c0,1.7,1.4,3,3,3
		c1.7,0.1,3.1-1.2,3.1-2.9C13.8,9.4,12.5,8,10.8,8c-0.1,0-0.2,0-0.3,0C8.9,8,7.5,9.3,7.5,10.9"/>
	<path class="st0" d="M16.3,16.4c-2.1,2.3-5.4,3.1-8.3,2.1l0.4-1.3c2.4,0.8,5.1,0.1,6.9-1.7c0.1-0.1,0.1-0.1,0.2-0.2l1.1,0.9
		C16.4,16.2,16.4,16.3,16.3,16.4"/>
	<path class="st0" d="M17.5,14.7L16.3,14c0.9-1.7,1-3.7,0.3-5.5l1.3-0.5C18.8,10.1,18.7,12.6,17.5,14.7"/>
	<path class="st0" d="M11.8,4.4C9.6,4,7.3,4.7,5.7,6.4l-1-1c1.9-2,4.7-2.9,7.4-2.4L11.8,4.4z"/>
	<path class="st1" d="M5.8,17.4c-0.3-0.2-0.6-0.4-0.8-0.7c-2.5-2.4-3.2-6.1-1.7-9.3l1.3,0.6c-1.2,2.6-0.7,5.7,1.4,7.6
		c0.2,0.2,0.4,0.4,0.7,0.6L5.8,17.4z"/>
	<path class="st1" d="M16.9,6.1l-1.1,0.8c-0.2-0.3-0.5-0.6-0.8-0.8c-0.4-0.4-0.8-0.7-1.2-0.9l0.7-1.2c0.5,0.3,1,0.7,1.5,1.1
		C16.3,5.4,16.6,5.7,16.9,6.1"/>
</g>
</svg>
