<?xml version="1.0" encoding="utf-8"?>
<!-- Generator: Adobe Illustrator 21.0.0, SVG Export Plug-In . SVG Version: 6.00 Build 0)  -->
<svg version="1.1" id="图层_1" xmlns="http://www.w3.org/2000/svg" xmlns:xlink="http://www.w3.org/1999/xlink" x="0px" y="0px"
	 viewBox="0 0 20 20" style="enable-background:new 0 0 20 20;" xml:space="preserve">
<style type="text/css">
	.st0{fill:url(#SVGID_1_);}
	.st1{fill:url(#SVGID_2_);}
	.st2{fill:url(#SVGID_3_);}
	.st3{fill:url(#SVGID_4_);}
	.st4{fill:url(#SVGID_5_);}
	.st5{fill:url(#SVGID_6_);}
	.st6{fill:url(#SVGID_7_);}
	.st7{fill:url(#SVGID_8_);}
	.st8{fill:url(#SVGID_9_);}
	.st9{fill:url(#SVGID_10_);}
	.st10{fill:url(#SVGID_11_);}
	.st11{fill:url(#SVGID_12_);}
	.st12{fill:url(#SVGID_13_);}
	.st13{fill:url(#SVGID_14_);}
</style>
<title>rfgbsfgbfs</title>
<g>
	
		<linearGradient id="SVGID_1_" gradientUnits="userSpaceOnUse" x1="6.9908" y1="2031.5129" x2="18.1368" y2="2039.6838" gradientTransform="matrix(1 0 0 1 0 -2029.27)">
		<stop  offset="0" style="stop-color:#88E1FF"/>
		<stop  offset="0.5" style="stop-color:#88E1FF"/>
		<stop  offset="0.89" style="stop-color:#88E1FF"/>
		<stop  offset="1" style="stop-color:#88E1FF"/>
	</linearGradient>
	<path class="st0" d="M14.6,8.4c-0.3-1.9-1.8-3.4-3.7-3.7c-0.1,0-0.2,0.1-0.2,0.2c0,0.1,0.1,0.2,0.2,0.2c1.7,0.2,3.1,1.6,3.4,3.3
		c0,0.1,0.1,0.2,0.2,0.2c0,0,0,0,0,0C14.6,8.7,14.7,8.6,14.6,8.4z"/>
	
		<linearGradient id="SVGID_2_" gradientUnits="userSpaceOnUse" x1="5.3873" y1="2033.7013" x2="16.5325" y2="2041.8713" gradientTransform="matrix(1 0 0 1 0 -2029.27)">
		<stop  offset="0" style="stop-color:#88E1FF"/>
		<stop  offset="0.5" style="stop-color:#88E1FF"/>
		<stop  offset="0.89" style="stop-color:#88E1FF"/>
		<stop  offset="1" style="stop-color:#88E1FF"/>
	</linearGradient>
	<path class="st1" d="M14.5,9.4c-0.1,0-0.2,0.1-0.2,0.2c-0.1,0.8-0.4,1.6-1,2.2c-0.1,0.1-0.1,0.2,0,0.3c0,0,0,0,0,0
		c0,0,0.1,0.1,0.1,0c0.1,0,0.1,0,0.1-0.1c0.6-0.7,1-1.5,1.1-2.4C14.7,9.5,14.6,9.4,14.5,9.4z"/>
	
		<linearGradient id="SVGID_3_" gradientUnits="userSpaceOnUse" x1="3.6661" y1="2036.0487" x2="14.8122" y2="2044.2189" gradientTransform="matrix(1 0 0 1 0 -2029.27)">
		<stop  offset="0" style="stop-color:#88E1FF"/>
		<stop  offset="0.5" style="stop-color:#88E1FF"/>
		<stop  offset="0.89" style="stop-color:#88E1FF"/>
		<stop  offset="1" style="stop-color:#88E1FF"/>
	</linearGradient>
	<path class="st2" d="M13,12.3c-0.1-0.1-0.2-0.1-0.3,0c0,0,0,0,0,0c-0.5,0.4-1.2,0.6-1.8,0.7c-0.1,0-0.2,0.1-0.2,0.2c0,0,0,0,0,0
		c0,0.1,0.1,0.2,0.2,0.2c0,0,0,0,0,0c0.7-0.1,1.4-0.4,2-0.8C13,12.5,13.1,12.4,13,12.3z"/>
	
		<linearGradient id="SVGID_4_" gradientUnits="userSpaceOnUse" x1="2.8505" y1="2037.161" x2="13.9966" y2="2045.3318" gradientTransform="matrix(1 0 0 1 0 -2029.27)">
		<stop  offset="0" style="stop-color:#88E1FF"/>
		<stop  offset="0.5" style="stop-color:#88E1FF"/>
		<stop  offset="0.89" style="stop-color:#88E1FF"/>
		<stop  offset="1" style="stop-color:#88E1FF"/>
	</linearGradient>
	<path class="st3" d="M9.8,13c-1.8-0.2-3.2-1.7-3.4-3.5c0-0.1-0.1-0.2-0.2-0.2c-0.1,0-0.2,0.1-0.2,0.2c0.2,2,1.8,3.5,3.7,3.8h0
		c0.1,0,0.2-0.1,0.2-0.2C10,13.1,10,13,9.8,13z"/>
	
		<linearGradient id="SVGID_5_" gradientUnits="userSpaceOnUse" x1="4.4904" y1="2034.9243" x2="15.6364" y2="2043.0952" gradientTransform="matrix(1 0 0 1 0 -2029.27)">
		<stop  offset="0" style="stop-color:#88E1FF"/>
		<stop  offset="0.5" style="stop-color:#88E1FF"/>
		<stop  offset="0.89" style="stop-color:#88E1FF"/>
		<stop  offset="1" style="stop-color:#88E1FF"/>
	</linearGradient>
	<path class="st4" d="M7.5,6.1C7.4,6,7.3,6,7.2,6.1c0,0,0,0,0,0c-0.6,0.6-1,1.5-1.1,2.3c0,0.1,0.1,0.2,0.2,0.2h0
		c0.1,0,0.2-0.1,0.2-0.2c0.1-0.8,0.5-1.5,1-2.1C7.6,6.3,7.6,6.2,7.5,6.1C7.5,6.1,7.5,6.1,7.5,6.1z"/>
	
		<linearGradient id="SVGID_6_" gradientUnits="userSpaceOnUse" x1="6.1749" y1="2032.6262" x2="17.3209" y2="2040.7963" gradientTransform="matrix(1 0 0 1 0 -2029.27)">
		<stop  offset="0" style="stop-color:#88E1FF"/>
		<stop  offset="0.5" style="stop-color:#88E1FF"/>
		<stop  offset="0.89" style="stop-color:#88E1FF"/>
		<stop  offset="1" style="stop-color:#88E1FF"/>
	</linearGradient>
	<path class="st5" d="M10,5c0-0.1-0.1-0.2-0.2-0.2c0,0,0,0,0,0C9.1,4.9,8.4,5.1,7.8,5.6C7.8,5.6,7.7,5.7,7.8,5.8c0,0,0,0,0,0
		c0,0,0.1,0.1,0.2,0.1c0,0,0.1,0,0.1,0c0.5-0.4,1.1-0.6,1.8-0.7C9.9,5.2,10,5.1,10,5C10,5,10,5,10,5z"/>
	
		<linearGradient id="SVGID_7_" gradientUnits="userSpaceOnUse" x1="4.9091" y1="2034.3527" x2="16.0551" y2="2042.5236" gradientTransform="matrix(1 0 0 1 0 -2029.27)">
		<stop  offset="0" style="stop-color:#88E1FF"/>
		<stop  offset="0.5" style="stop-color:#88E1FF"/>
		<stop  offset="0.89" style="stop-color:#88E1FF"/>
		<stop  offset="1" style="stop-color:#88E1FF"/>
	</linearGradient>
	<path class="st6" d="M10.4,5.6c-1.9,0-3.5,1.6-3.5,3.5s1.6,3.5,3.5,3.5s3.5-1.6,3.5-3.5C13.9,7.2,12.3,5.6,10.4,5.6z M10.4,12.2
		c-1.7,0-3.1-1.4-3.1-3.1S8.6,6,10.4,6s3.1,1.4,3.1,3.1C13.5,10.8,12.1,12.2,10.4,12.2z"/>
	
		<linearGradient id="SVGID_8_" gradientUnits="userSpaceOnUse" x1="3.2715" y1="2036.5878" x2="14.4167" y2="2044.7578" gradientTransform="matrix(1 0 0 1 0 -2029.27)">
		<stop  offset="0" style="stop-color:#88E1FF"/>
		<stop  offset="0.5" style="stop-color:#88E1FF"/>
		<stop  offset="0.89" style="stop-color:#88E1FF"/>
		<stop  offset="1" style="stop-color:#88E1FF"/>
	</linearGradient>
	<circle class="st7" cx="6.3" cy="9.5" r="0.4"/>
	
		<linearGradient id="SVGID_9_" gradientUnits="userSpaceOnUse" x1="6.6195" y1="2032.0197" x2="17.7655" y2="2040.1906" gradientTransform="matrix(1 0 0 1 0 -2029.27)">
		<stop  offset="0" style="stop-color:#88E1FF"/>
		<stop  offset="0.5" style="stop-color:#88E1FF"/>
		<stop  offset="0.89" style="stop-color:#88E1FF"/>
		<stop  offset="1" style="stop-color:#88E1FF"/>
	</linearGradient>
	<circle class="st8" cx="14.5" cy="8.5" r="0.4"/>
	
		<linearGradient id="SVGID_10_" gradientUnits="userSpaceOnUse" x1="4.1422" y1="2032.8085" x2="17.7989" y2="2042.8193" gradientTransform="matrix(1 0 0 1 0 -2029.27)">
		<stop  offset="0" style="stop-color:#88E1FF"/>
		<stop  offset="0.5" style="stop-color:#88E1FF"/>
		<stop  offset="0.89" style="stop-color:#88E1FF"/>
		<stop  offset="1" style="stop-color:#88E1FF"/>
	</linearGradient>
	<path class="st9" d="M10.4,7C9.8,7,9.3,7.5,9.3,8.1c0,0.4,0.2,0.7,0.5,0.9l0-0.1c0-0.2,0.2-0.3,0.3-0.3h0.6C10.8,8.7,11,8.8,11,9
		L11,9c0.5-0.3,0.6-1,0.3-1.6C11.1,7.2,10.8,7,10.4,7z"/>
	
		<linearGradient id="SVGID_11_" gradientUnits="userSpaceOnUse" x1="3.1562" y1="2034.1544" x2="16.8122" y2="2044.1646" gradientTransform="matrix(1 0 0 1 0 -2029.27)">
		<stop  offset="0" style="stop-color:#88E1FF"/>
		<stop  offset="0.5" style="stop-color:#88E1FF"/>
		<stop  offset="0.89" style="stop-color:#88E1FF"/>
		<stop  offset="1" style="stop-color:#88E1FF"/>
	</linearGradient>
	<path class="st10" d="M11.3,10.9L11,9.1c-0.4,0.2-0.9,0.2-1.2,0l-0.3,1.9c0,0.1,0.1,0.2,0.2,0.3c0,0,0,0,0,0h1.4
		C11.2,11.2,11.3,11.1,11.3,10.9C11.3,11,11.3,11,11.3,10.9z"/>
	
		<linearGradient id="SVGID_12_" gradientUnits="userSpaceOnUse" x1="3.7463" y1="2033.3488" x2="17.403" y2="2043.3589" gradientTransform="matrix(1 0 0 1 0 -2029.27)">
		<stop  offset="0" style="stop-color:#88E1FF"/>
		<stop  offset="0.5" style="stop-color:#88E1FF"/>
		<stop  offset="0.89" style="stop-color:#88E1FF"/>
		<stop  offset="1" style="stop-color:#88E1FF"/>
	</linearGradient>
	<path class="st11" d="M11,9c0-0.2-0.2-0.3-0.3-0.3h-0.6C10,8.7,9.8,8.8,9.8,9l0,0.1c0.2,0.1,0.4,0.2,0.6,0.2
		C10.6,9.2,10.8,9.2,11,9L11,9z"/>
	
		<linearGradient id="SVGID_13_" gradientUnits="userSpaceOnUse" x1="5.1127" y1="2034.0757" x2="16.2579" y2="2042.2466" gradientTransform="matrix(1 0 0 1 0 -2029.27)">
		<stop  offset="0" style="stop-color:#88E1FF"/>
		<stop  offset="0.5" style="stop-color:#88E1FF"/>
		<stop  offset="0.89" style="stop-color:#88E1FF"/>
		<stop  offset="1" style="stop-color:#88E1FF"/>
	</linearGradient>
	<path class="st12" d="M18.3,8.9c-0.1-0.2-2.5-4.5-8-4.5s-7.9,4.3-8,4.5c-0.1,0.2,0,0.4,0.1,0.5c0.2,0.1,0.4,0,0.5-0.1
		c0,0,2.3-4.1,7.3-4.1s7.3,4.1,7.3,4.1c0.1,0.1,0.2,0.2,0.3,0.2c0.1,0,0.1,0,0.2,0C18.4,9.3,18.4,9.1,18.3,8.9z"/>
	
		<linearGradient id="SVGID_14_" gradientUnits="userSpaceOnUse" x1="4.7194" y1="2034.6121" x2="15.8646" y2="2042.7828" gradientTransform="matrix(1 0 0 1 0 -2029.27)">
		<stop  offset="0" style="stop-color:#88E1FF"/>
		<stop  offset="0.5" style="stop-color:#88E1FF"/>
		<stop  offset="0.89" style="stop-color:#88E1FF"/>
		<stop  offset="1" style="stop-color:#88E1FF"/>
	</linearGradient>
	<path class="st13" d="M18.2,8.7c-0.2-0.1-0.4,0-0.5,0.1c0,0-2.3,4.1-7.3,4.1S3.1,8.9,3.1,8.9C3,8.7,2.7,8.7,2.6,8.8
		C2.4,8.9,2.3,9.1,2.4,9.2c0.1,0.2,2.5,4.5,8,4.5s7.8-4.3,8-4.5C18.4,9.1,18.4,8.8,18.2,8.7z"/>
</g>
</svg>
