<?xml version="1.0" encoding="utf-8"?>
<!-- Generator: Adobe Illustrator 21.0.0, SVG Export Plug-In . SVG Version: 6.00 Build 0)  -->
<svg version="1.1" id="图层_1" xmlns="http://www.w3.org/2000/svg" xmlns:xlink="http://www.w3.org/1999/xlink" x="0px" y="0px"
	 viewBox="0 0 20 20" style="enable-background:new 0 0 20 20;" xml:space="preserve">
<style type="text/css">
	.st0{fill:url(#SVGID_1_);}
	.st1{fill:url(#SVGID_2_);}
</style>
<title>图标</title>
<linearGradient id="SVGID_1_" gradientUnits="userSpaceOnUse" x1="2.348" y1="5.1075" x2="9.5381" y2="15.989" gradientTransform="matrix(1 0 0 -1 0 22.64)">
	<stop  offset="0" style="stop-color:#7D7D7D"/>
	<stop  offset="0.62" style="stop-color:#020202"/>
</linearGradient>
<path class="st0" d="M10.1,8.9c0.7,0.4,1.5,0.2,2.3-0.7c0.1-0.1,0-0.2-0.1-0.2c-2.2-1.7-6.2-4.8-7.2-5.6c-0.1-0.1-0.2-0.1-0.3,0
	c0,0,0,0.1,0,0.1L2,18.1c0,0.1,0.1,0.2,0.2,0.2c0.1,0,0.1,0,0.2,0c1.9-1.5,8.9-6.7,12.2-8c0.1,0,0.2-0.2,0.1-0.3
	c-0.6-0.6-1-0.9-1.5-1.2c-0.1,0-0.2,0-0.3,0c-0.5,0.2-4.9,2.8-7.3,4.7c-0.2,0.1-0.4,0-0.4-0.2c0.7-3.5,1.1-5.9,1.3-6.7
	c0-0.1,0.1-0.2,0.2-0.2c0,0,0.1,0,0.1,0L10.1,8.9z"/>
<linearGradient id="SVGID_2_" gradientUnits="userSpaceOnUse" x1="12.6029" y1="6.5803" x2="15.699" y2="11.2654" gradientTransform="matrix(1 0 0 -1 0 22.64)">
	<stop  offset="0" style="stop-color:#7D7D7D"/>
	<stop  offset="0.62" style="stop-color:#020202"/>
</linearGradient>
<path class="st1" d="M15.5,10.8c-0.3,0-3.7,2-5.2,3.9c-0.1,0.1,0.1,0.3,0.2,0.2c2-0.9,5.2-1.9,7.5-2.2c0.1,0,0.1-0.1,0.1-0.2
	c0,0,0-0.1,0-0.1C17.1,11.6,15.8,10.8,15.5,10.8z"/>
</svg>
