<?xml version="1.0" encoding="utf-8"?>
<!-- Generator: Adobe Illustrator 21.0.0, SVG Export Plug-In . SVG Version: 6.00 Build 0)  -->
<svg version="1.1" id="图层_1" xmlns="http://www.w3.org/2000/svg" xmlns:xlink="http://www.w3.org/1999/xlink" x="0px" y="0px"
	 viewBox="0 0 20 20" style="enable-background:new 0 0 20 20;" xml:space="preserve">
<style type="text/css">
	.st0{fill:#8AC072;}
	.st1{fill:#FFFFFF;}
</style>
<title>BCH</title>
<desc>Created with Sketch.</desc>
<g id="Page-1">
	<g id="Artboard" transform="translate(-1111.000000, -1254.000000)">
		<g id="BCH" transform="translate(1111.000000, 1253.000000)">
			<path id="Fill-511" class="st0" d="M18,11c0,4.4-3.6,8-8,8s-8-3.6-8-8s3.6-8,8-8S18,6.6,18,11"/>
			<path id="Fill-512" class="st1" d="M13,11.2c0.1,0.2,0.1,0.4,0.1,0.7c-0.1,0.2-0.2,0.4-0.4,0.5l-2.1,1.1l-0.8-1.6l2.1-1.1l0,0
				C12.2,10.6,12.7,10.8,13,11.2 M11.1,8.2c0.2,0.1,0.4,0.2,0.5,0.4c0.2,0.4,0.1,1-0.4,1.2l0,0l-2.1,1.1L8.4,9.3l2.1-1.1
				C10.6,8.1,10.9,8.1,11.1,8.2 M11.4,7.1C10.9,6.9,10.4,7,9.9,7.2L9.6,7.4L9,6.1L8,6.6l0.7,1.3L7.8,8.3L7.1,7L6.9,7.2l-1,0.5
				l0.6,1.2L5.4,9.5L6,10.6L7.1,10l2.1,4l-1.2,0.6l0.6,1.1l1.2-0.6l0.6,1.1l0.2-0.1l1-0.5L11,14.5l0.8-0.4l0.6,1.1l1-0.5l-0.6-1.1
				l0.3-0.1c0.2-0.1,0.3-0.2,0.5-0.3c0.2-0.2,0.4-0.5,0.5-0.8c0.2-0.5,0.1-1.1-0.1-1.5c-0.3-0.5-0.7-0.8-1.2-1
				c0.2-0.5,0.1-1.1-0.1-1.6C12.4,7.6,12,7.3,11.4,7.1"/>
		</g>
	</g>
</g>
</svg>
