<?xml version="1.0" encoding="utf-8"?>
<!-- Generator: Adobe Illustrator 21.0.0, SVG Export Plug-In . SVG Version: 6.00 Build 0)  -->
<svg version="1.1" id="图层_1" xmlns="http://www.w3.org/2000/svg" xmlns:xlink="http://www.w3.org/1999/xlink" x="0px" y="0px"
	 viewBox="0 0 20 20" style="enable-background:new 0 0 20 20;" xml:space="preserve">
<style type="text/css">
	.st0{fill:#F7931A;}
	.st1{fill:#FFFFFF;}
</style>
<title>BTC</title>
<desc>Created with Sketch.</desc>
<g id="Page-1">
	<g id="Artboard" transform="translate(-422.000000, -1254.000000)">
		<g id="BTC" transform="translate(422.000000, 1253.000000)">
			<path id="Fill-504" class="st0" d="M18,11c0,4.4-3.6,8-8,8s-8-3.6-8-8s3.6-8,8-8S18,6.6,18,11"/>
			<path id="Fill-505" class="st1" d="M11.9,13.3c-0.1,0.2-0.2,0.4-0.4,0.5c-0.2,0.1-0.4,0.1-0.7,0.1l-2.3-0.7l0.5-1.7l2.3,0.7l0,0
				C11.8,12.4,12.1,12.9,11.9,13.3 M12.7,9.9c0.1,0.2,0.1,0.4,0.1,0.7c-0.1,0.5-0.6,0.7-1.1,0.6l0,0l-2.3-0.7l0.5-1.7l2.3,0.7
				C12.4,9.5,12.6,9.7,12.7,9.9 M13.7,9.3c-0.3-0.5-0.7-0.8-1.2-1l-0.3-0.1l0.4-1.4l-1.1-0.3L11.1,8l-0.9-0.3l0.4-1.4l-0.3-0.1
				l-1-0.3L8.9,7.2L7.7,6.9L7.3,8.1l1.3,0.4l-1.3,4.4L6,12.4l-0.4,1.2L6.9,14l-0.3,1.1l0.3,0.1l1,0.3l0.4-1.2l0.9,0.3l-0.4,1.2
				l1.1,0.3l0.4-1.2l0.3,0.1c0.2,0.1,0.4,0.1,0.6,0.1c0.3,0,0.7-0.1,1-0.2c0.5-0.3,0.8-0.7,1-1.2c0.2-0.5,0.1-1.1-0.2-1.6
				c0.5-0.2,0.8-0.7,1-1.2C14,10.4,14,9.8,13.7,9.3"/>
		</g>
	</g>
</g>
</svg>
