<?xml version="1.0" encoding="utf-8"?>
<!-- Generator: Adobe Illustrator 21.0.0, SVG Export Plug-In . SVG Version: 6.00 Build 0)  -->
<svg version="1.1" id="图层_1" xmlns="http://www.w3.org/2000/svg" xmlns:xlink="http://www.w3.org/1999/xlink" x="0px" y="0px"
	 viewBox="0 0 20 20" style="enable-background:new 0 0 20 20;" xml:space="preserve">
<style type="text/css">
	.st0{fill:#333333;}
	.st1{fill:#020100;}
	.st2{fill:#555555;}
</style>
<title>BTM</title>
<desc>Created with Sketch.</desc>
<g id="Page-1">
	<g id="Artboard" transform="translate(-760.000000, -6923.000000)">
		<g id="BTM" transform="translate(760.000000, 6923.000000)">
			<polygon id="Fill-450" class="st0" points="13.4,7.2 11.9,8.9 8.2,2 			"/>
			<polygon id="Fill-451" class="st1" points="11.9,8.9 7.5,4.5 5.2,5.1 8.2,2 			"/>
			<polygon id="Fill-452" class="st0" points="8.2,2 5.2,5.1 4.7,6.9 3.3,3.3 			"/>
			<polygon id="Fill-453" class="st2" points="4.7,6.9 2.1,8.3 3.3,3.3 			"/>
			<polygon id="Fill-454" class="st1" points="4.7,6.9 2.7,8.8 2.1,8.3 			"/>
			<polygon id="Fill-455" class="st0" points="12.8,13.4 11.2,11.8 18,8.2 			"/>
			<polygon id="Fill-456" class="st1" points="11.2,11.8 15.5,7.5 14.9,5.1 18,8.2 			"/>
			<polygon id="Fill-457" class="st0" points="18,8.2 14.9,5.1 13.2,4.6 16.7,3.3 			"/>
			<polygon id="Fill-458" class="st2" points="13.2,4.6 11.8,2 16.7,3.3 			"/>
			<polygon id="Fill-459" class="st1" points="13.2,4.6 11.2,2.6 11.8,2 			"/>
			<polygon id="Fill-460" class="st0" points="6.6,12.8 8.1,11.1 11.8,18 			"/>
			<polygon id="Fill-461" class="st1" points="8.1,11.1 12.5,15.5 14.8,14.9 11.8,18 			"/>
			<polygon id="Fill-462" class="st0" points="11.8,18 14.8,14.9 15.3,13.1 16.7,16.7 			"/>
			<polygon id="Fill-463" class="st2" points="15.3,13.1 17.9,11.7 16.7,16.7 			"/>
			<polygon id="Fill-464" class="st1" points="15.3,13.1 17.3,11.2 17.9,11.7 			"/>
			<polygon id="Fill-465" class="st0" points="7.2,6.6 8.8,8.2 2,11.8 			"/>
			<polygon id="Fill-466" class="st1" points="8.8,8.2 4.5,12.5 5.1,14.9 2,11.8 			"/>
			<polygon id="Fill-467" class="st0" points="2,11.8 5.1,14.9 6.8,15.4 3.3,16.7 			"/>
			<polygon id="Fill-468" class="st2" points="6.8,15.4 8.2,18 3.3,16.7 			"/>
			<polygon id="Fill-469" class="st1" points="6.8,15.4 8.8,17.4 8.2,18 			"/>
		</g>
	</g>
</g>
</svg>
