<?xml version="1.0" encoding="utf-8"?>
<!-- Generator: Adobe Illustrator 21.0.0, SVG Export Plug-In . SVG Version: 6.00 Build 0)  -->
<svg version="1.1" id="图层_1" xmlns="http://www.w3.org/2000/svg" xmlns:xlink="http://www.w3.org/1999/xlink" x="0px" y="0px"
	 viewBox="0 0 20 20" style="enable-background:new 0 0 20 20;" xml:space="preserve">
<style type="text/css">
	.st0{fill:#74C4EE;}
	.st1{fill:#FFFFFF;}
	.st2{fill:#0D568D;}
	.st3{fill:#1B7EAD;}
	.st4{fill:#4CA1D6;}
	.st5{fill:#103D54;}
	.st6{fill:#024E7B;}
	.st7{fill:#525252;}
</style>
<title>BTS</title>
<desc>Created with Sketch.</desc>
<g id="Page-1">
	<g id="Artboard" transform="translate(-1106.000000, -3092.000000)">
		<g id="BTS" transform="translate(1106.000000, 3092.000000)">
			<path id="Fill-45" class="st0" d="M10,19.2c-4.4,0-8-3.6-8-8s3.6-8,8-8s8,3.6,8,8S14.4,19.2,10,19.2"/>
			<path id="Fill-47" class="st1" d="M10,3.7c-4.1,0-7.5,3.4-7.5,7.5s3.4,7.5,7.5,7.5s7.5-3.4,7.5-7.5S14.1,3.7,10,3.7"/>
			<path id="Fill-49" class="st2" d="M9.3,13c0.2,0.1,0.4,0.2,0.6,0.2v3.6c-1.2-0.1-2.3-0.6-3.1-1.3L9.3,13z"/>
			<path id="Fill-51" class="st3" d="M11,13l2.6,2.6c-0.8,0.8-1.9,1.2-3.1,1.3v-3.6C10.7,13.2,10.9,13.1,11,13"/>
			<path id="Fill-53" class="st3" d="M11.7,12h3.6c-0.1,1.2-0.6,2.3-1.3,3.1l-2.6-2.6C11.6,12.4,11.7,12.2,11.7,12"/>
			<path id="Fill-55" class="st2" d="M8.6,12c0,0.2,0.1,0.4,0.2,0.6l-2.6,2.6C5.5,14.3,5.1,13.2,5,12C5,12,8.6,12,8.6,12z"/>
			<path id="Fill-57" class="st0" d="M13.6,7.8L11,10.4c-0.2-0.1-0.4-0.2-0.6-0.2V6.5C11.7,6.6,12.8,7.1,13.6,7.8"/>
			<path id="Fill-59" class="st4" d="M15.3,11.4h-3.6c0-0.2-0.1-0.4-0.2-0.6L14,8.3C14.8,9.1,15.3,10.2,15.3,11.4"/>
			<path id="Fill-61" class="st5" d="M9.6,10L9.6,10L9.6,10L9.6,10"/>
			<path id="Fill-63" class="st6" d="M8.9,10.8c-0.1,0.2-0.2,0.4-0.2,0.6H5V6.9L8.9,10.8z"/>
			<path id="Fill-65" class="st6" d="M9.9,6.5v3.6c-0.1,0-0.2,0-0.3,0.1l0,0c-0.1,0-0.2,0.1-0.3,0.2L5,6.1V0.9L9.9,6.5z"/>
			<path id="Fill-67" class="st7" d="M9.6,10L9.6,10L9.6,10L9.6,10"/>
		</g>
	</g>
</g>
</svg>
