<?xml version="1.0" encoding="utf-8"?>
<!-- Generator: Adobe Illustrator 21.0.0, SVG Export Plug-In . SVG Version: 6.00 Build 0)  -->
<svg version="1.1" id="图层_1" xmlns="http://www.w3.org/2000/svg" xmlns:xlink="http://www.w3.org/1999/xlink" x="0px" y="0px"
	 viewBox="0 0 20 20" style="enable-background:new 0 0 20 20;" xml:space="preserve">
<style type="text/css">
	.st0{fill:#F86E18;}
	.st1{fill:#F87119;}
	.st2{fill:#F86915;}
	.st3{fill:#F8761C;}
	.st4{fill:#F86010;}
	.st5{fill:#F86A16;}
	.st6{fill:#F86B16;}
	.st7{fill:#FEFEFE;}
	.st8{fill:#F86513;}
	.st9{fill:#F8741B;}
	.st10{fill:#F86D17;}
	.st11{fill:#F86F18;}
</style>
<title>图标</title>
<g>
	<path class="st0" d="M17.8,12.2c-0.1-0.3-0.3-0.5-0.5-0.7c0,0,0,0,0,0c-0.6-0.5-1.2-0.6-1.9-0.4c-1,0.3-1.6,1.3-1.4,2.3
		c0,0.2,0.1,0.4,0.2,0.6c0,0,0,0,0,0c0.2,0.4,0.6,0.7,1,0.9c0.2,0.1,0.3,0.1,0.5,0.1l0,0c0,0,0,0,0.1,0c0.1,0,0.2,0,0.2,0
		c0,0,0,0,0.1,0h0c0.2,0,0.5-0.1,0.7-0.2c0.4-0.2,0.7-0.5,0.9-0.8c0.1-0.2,0.2-0.5,0.2-0.7c0,0,0,0,0,0C18,12.9,17.9,12.5,17.8,12.2
		z M15.2,13.3C15.2,13.3,15.2,13.3,15.2,13.3L15.2,13.3c0-0.1,0-0.1,0-0.1c-0.1-0.4,0.2-0.9,0.6-0.9c0.2,0,0.3,0,0.5,0.1
		c0,0,0,0,0,0l0,0c0,0,0,0,0.1,0c0.1,0.1,0.2,0.1,0.2,0.2c0.2,0.3,0.2,0.8-0.1,1c-0.2,0.2-0.4,0.3-0.7,0.2
		C15.5,13.7,15.3,13.6,15.2,13.3L15.2,13.3z"/>
	<path class="st1" d="M5.9,12.4c0,0,0-0.1,0-0.1c-0.1-0.2-0.2-0.4-0.4-0.6c-0.1-0.1-0.2-0.2-0.3-0.3c-0.1-0.1-0.3-0.2-0.5-0.3
		c0,0,0,0,0,0C4.4,11,4,11,3.7,11C2.7,11.2,2,12,2,13c0,0.1,0,0.3,0,0.4c0,0.2,0.1,0.3,0.2,0.5c0,0,0,0.1,0.1,0.1
		c0.1,0.2,0.3,0.4,0.5,0.6c0.1,0.1,0.2,0.1,0.3,0.2C3.4,15,3.9,15.1,4.3,15c1-0.1,1.8-1.1,1.7-2.1C6,12.7,6,12.5,5.9,12.4z
		 M4.7,13.3c-0.1,0.3-0.5,0.5-0.8,0.5c-0.1,0-0.1,0-0.2,0l0,0c0,0,0,0,0,0c-0.3-0.1-0.5-0.3-0.5-0.6c0,0,0,0,0-0.1l0,0
		c0,0,0-0.1,0-0.1c0-0.2,0.1-0.4,0.2-0.5c0.1-0.1,0.3-0.2,0.5-0.3c0,0,0,0,0.1,0c0,0,0.1,0,0.1,0c0.2,0,0.3,0.1,0.4,0.2
		c0,0,0,0,0.1,0h0c0,0,0,0,0,0c0,0,0.1,0.1,0.1,0.1C4.8,12.7,4.8,13,4.7,13.3C4.8,13.3,4.7,13.3,4.7,13.3L4.7,13.3
		C4.7,13.3,4.7,13.3,4.7,13.3L4.7,13.3z"/>
	<path class="st2" d="M9.4,13.6C9.4,13.6,9.4,13.6,9.4,13.6c0,0.2,0,0.3,0,0.4c0,0.2,0,0.3,0,0.5c0,0,0,0,0,0.1V13.6z"/>
	<path class="st3" d="M10.2,5.5C10.2,5.5,10.2,5.5,10.2,5.5C10.2,5.5,10.2,5.5,10.2,5.5z"/>
	<path class="st4" d="M16.1,15C16.1,15,16.1,15,16.1,15C16.1,15,16.1,15,16.1,15z"/>
	<path class="st4" d="M15.8,15C15.8,15,15.8,15,15.8,15C15.8,15,15.8,15,15.8,15z"/>
	<path class="st5" d="M15.7,8.1C15.8,8.1,15.8,8.1,15.7,8.1C15.8,8.1,15.8,8.1,15.7,8.1z"/>
	<path class="st6" d="M14,9.1C14,9.1,14,9.1,14,9.1C14,9.1,14,9.1,14,9.1z"/>
	<path class="st5" d="M16.1,8.1C16.1,8.1,16.1,8.1,16.1,8.1C16.1,8.1,16.1,8.1,16.1,8.1z"/>
	<path class="st7" d="M15.2,13.2c0-0.1,0-0.2,0-0.3c0-0.4,0.3-0.8,0.7-0.8c0.2,0,0.3,0,0.4,0.1c0.1,0.1,0.2,0.1,0.3,0.2
		c0.3,0.4,0.2,0.9-0.2,1.1c-0.4,0.3-0.9,0.2-1.1-0.2C15.2,13.4,15.2,13.4,15.2,13.2C15.2,13.3,15.2,13.3,15.2,13.2z"/>
	<path class="st7" d="M4.2,6.9c-0.1,0-0.3,0-0.4,0C3.5,6.8,3.4,6.7,3.3,6.5c0,0,0-0.1,0-0.1c-0.1-0.2-0.1-0.3,0-0.5
		c0.1-0.4,0.6-0.7,1-0.5c0,0,0.1,0,0.1,0l0,0c0.1,0.1,0.2,0.1,0.2,0.2c0.2,0.2,0.2,0.5,0.1,0.7c0,0,0,0,0,0c0,0.1-0.1,0.2-0.2,0.3
		C4.4,6.8,4.3,6.9,4.2,6.9z"/>
	<path class="st7" d="M9.7,17.2c-0.1-0.1-0.3-0.1-0.4-0.3c-0.1-0.1-0.2-0.3-0.2-0.5c0-0.4,0.3-0.8,0.8-0.8c0.3,0,0.6,0.2,0.8,0.5
		c0,0,0,0,0,0c0,0.1,0,0.2,0.1,0.3c0,0,0,0.1,0,0.1c0,0.3-0.2,0.6-0.6,0.7C10.1,17.3,9.9,17.3,9.7,17.2L9.7,17.2z"/>
	<path class="st8" d="M10.8,16.5v-0.1C10.8,16.4,10.8,16.5,10.8,16.5z"/>
	<path class="st7" d="M11.9,7.4l0.2,0.2c0.1,0.1,0.2,0.2,0.3,0.3l0.1,0.2c0.1,0.1,0.1,0.2,0.2,0.4c0.1,0.1,0.1,0.3,0.2,0.5l0.1,0.3
		c0,0,0,0,0,0.1c0,0.1,0,0.2,0,0.3c0,0.1,0,0.2,0,0.4c0,0.2-0.1,0.3-0.1,0.5c-0.2,0.5-0.5,0.9-0.8,1.3c-0.2,0.1-0.3,0.3-0.5,0.4
		c-0.2,0.1-0.5,0.2-0.7,0.3c0,0,0,0,0,0c-0.1,0-0.2,0-0.3,0c-0.2,0-0.3,0-0.5,0c-0.2,0-0.5-0.1-0.7-0.1c-0.3-0.1-0.5-0.2-0.8-0.4
		l0,0c-0.2-0.1-0.3-0.2-0.4-0.4c-0.2-0.2-0.3-0.4-0.4-0.6c0,0,0,0,0,0c0,0,0-0.1-0.1-0.1c-0.2-0.4-0.3-0.9-0.2-1.4c0,0,0-0.1,0-0.1
		c0-0.2,0.1-0.3,0.1-0.5c0.1-0.2,0.1-0.4,0.2-0.6c0.2-0.4,0.6-0.8,1-1C8.7,7,9,6.8,9.4,6.8c0,0,0,0,0,0c0.2,0,0.4-0.1,0.6-0.1
		c0.3,0,0.5,0,0.8,0.1h0c0.1,0,0.2,0.1,0.3,0.1C11.4,7,11.6,7.2,11.9,7.4L11.9,7.4z"/>
	<path class="st7" d="M15.9,5.3L15.9,5.3c0.1,0,0.1,0,0.1,0c0.3,0,0.5,0.2,0.6,0.4c0,0.1,0.1,0.2,0.1,0.2c0.1,0.4-0.2,0.9-0.6,1
		c0,0,0,0,0,0c-0.2,0-0.5,0-0.6-0.2c0,0,0,0-0.1,0c0,0-0.1-0.1-0.1-0.1c-0.1-0.2-0.2-0.4-0.1-0.6c0,0,0-0.1,0-0.1
		c0.1-0.2,0.2-0.3,0.3-0.4C15.6,5.4,15.7,5.3,15.9,5.3L15.9,5.3C15.9,5.3,15.9,5.3,15.9,5.3z"/>
	<path class="st7" d="M9.8,3.5c-0.1,0-0.2-0.1-0.3-0.1c-0.3-0.2-0.4-0.7-0.2-1c0.2-0.3,0.6-0.5,1-0.4l0,0c0.1,0,0.2,0.1,0.3,0.2
		c0.1,0.2,0.2,0.4,0.2,0.6c0,0,0,0,0,0.1c0,0.3-0.2,0.6-0.5,0.7C10.1,3.5,10,3.5,9.8,3.5z"/>
	<path class="st7" d="M4.5,12.4c0.2,0.2,0.3,0.6,0.2,0.9c0,0,0,0,0,0c-0.1,0.1-0.2,0.3-0.3,0.4c-0.2,0.1-0.4,0.2-0.7,0.1l0,0
		c-0.1,0-0.2-0.1-0.3-0.2c-0.1-0.1-0.2-0.3-0.2-0.5c0-0.4,0.3-0.8,0.7-0.9h0c0,0,0,0,0.1,0C4.1,12.2,4.3,12.3,4.5,12.4L4.5,12.4z"/>
	<path class="st9" d="M4,12.2C3.9,12.2,3.9,12.2,4,12.2C3.9,12.2,3.9,12.2,4,12.2z"/>
	<path class="st10" d="M12.8,9.3C12.8,9.2,12.8,9.2,12.8,9.3C12.8,9.2,12.8,9.2,12.8,9.3z"/>
	<path class="st11" d="M15.9,5.3C15.9,5.3,15.9,5.3,15.9,5.3C15.9,5.3,15.9,5.3,15.9,5.3z"/>
	<path class="st11" d="M16,5.3C16,5.3,16,5.3,16,5.3C16,5.3,16,5.3,16,5.3z"/>
	<path class="st0" d="M8.2,3.6c0,0.1,0.1,0.1,0.1,0.2C8.4,4,8.6,4.2,8.8,4.3c0,0,0,0,0,0C9.8,5,11,4.7,11.6,3.8
		C11.9,3.4,12,2.9,12,2.4c0-0.2-0.1-0.4-0.2-0.5c-0.1-0.2-0.2-0.3-0.3-0.5c-0.1-0.1-0.2-0.2-0.3-0.3c0,0,0,0,0,0
		c-0.4-0.3-1-0.5-1.5-0.4C8.6,0.8,7.8,1.8,8,3C8,3,8,3,8,3C8,3.2,8.1,3.4,8.2,3.6z M9.2,2.6c0-0.3,0.2-0.5,0.5-0.6
		c0.2-0.1,0.3-0.1,0.5,0c0,0,0,0,0,0l0,0c0,0,0,0,0,0c0.3,0.1,0.5,0.4,0.5,0.7c0,0,0,0,0,0.1c0,0.2-0.1,0.4-0.3,0.5
		c-0.2,0.1-0.4,0.2-0.6,0.2c0,0-0.1,0-0.1,0l0,0c0,0,0,0,0,0C9.5,3.4,9.3,3.2,9.2,2.9c0,0,0,0,0-0.1l0,0C9.2,2.7,9.2,2.6,9.2,2.6
		L9.2,2.6z"/>
	<path class="st0" d="M18,5.9c0,0,0-0.1,0-0.1c0,0,0,0,0,0c0,0,0-0.1,0-0.1c-0.1-0.2-0.2-0.5-0.3-0.7c0-0.1-0.1-0.1-0.1-0.2
		c-0.1-0.2-0.3-0.3-0.5-0.4c0,0,0,0,0,0c-0.5-0.3-1.1-0.3-1.6-0.2c-0.9,0.3-1.5,1.1-1.4,2c0,0.1,0,0.2,0,0.3c0,0,0,0.1,0,0.1
		c-0.1,0.1-0.3,0.1-0.4,0.2L13.2,7c0,0-0.1,0-0.1,0c0-0.1-0.1-0.1-0.1-0.2c0-0.1-0.1-0.1-0.1-0.2l0,0c-0.2-0.2-0.3-0.3-0.5-0.4
		C12.2,6.1,12,6,11.8,5.9c-0.1-0.1-0.3-0.1-0.4-0.2c-0.2-0.1-0.4-0.1-0.6-0.2l0,0c-0.2,0-0.3-0.1-0.5-0.1c0,0-0.1,0-0.1,0h0
		c-0.3,0-0.7,0-1,0.1C8.2,5.8,7.4,6.3,6.8,7C6.8,7,6.8,7,6.7,7L6.3,6.8L6,6.6C6,6.6,6,6.6,6,6.5c0,0,0,0,0,0C6,6.3,6,6.2,6,6
		c0-0.2,0-0.4-0.1-0.5c0-0.1-0.1-0.2-0.1-0.3C5.7,4.9,5.5,4.8,5.3,4.6c0,0,0,0,0,0C5,4.3,4.6,4.1,4.2,4.1c-0.5-0.1-1,0.1-1.4,0.4
		C2.1,5,1.9,5.7,2,6.5C2,6.8,2.1,7,2.3,7.2l0,0c0,0,0,0,0,0.1C2.5,7.5,2.7,7.7,3,7.9l0,0C3.1,8,3.3,8,3.4,8.1C3.7,8.1,4,8.2,4.3,8.1
		C4.5,8.1,4.7,8,4.9,8C5,7.9,5.2,7.8,5.3,7.7c0,0,0.1,0,0.1,0c0.1,0.1,0.2,0.1,0.3,0.2l0.5,0.3c0,0,0,0,0,0.1c0,0.1-0.1,0.1-0.1,0.2
		C6,8.5,6,8.7,6,8.9c0,0,0,0,0,0c0,0.3-0.1,0.6,0,0.9c0,0.1,0,0.2,0,0.3l0,0c0,0,0,0,0,0c0,0.2,0.1,0.5,0.2,0.7
		c0.1,0.2,0.2,0.5,0.3,0.7c0,0,0,0,0,0c0.1,0.2,0.3,0.4,0.5,0.6c0.1,0.2,0.3,0.3,0.4,0.4c0,0,0,0,0,0c0.2,0.1,0.3,0.2,0.5,0.4
		c0.2,0.2,0.5,0.3,0.8,0.4c0.2,0.1,0.4,0.1,0.6,0.1l0,0c0,0,0.1,0,0.1,0c0,0.1,0,0.2,0,0.2c0,0,0,0.1,0,0.1c0,0,0,0,0,0
		c0,0,0,0,0,0.1c0,0.1,0,0.3,0,0.4c0,0-0.1,0-0.1,0c-0.5,0.2-0.9,0.6-1.1,1.1C8,15.8,8,16,7.9,16.2c0,0,0,0,0,0.1c0,0.1,0,0.3,0,0.5
		c0,0.2,0.1,0.4,0.2,0.6c0,0.1,0,0.1,0.1,0.2c0.1,0.2,0.3,0.4,0.5,0.6c0.1,0.1,0.3,0.2,0.4,0.3c0.5,0.2,1,0.2,1.4,0.1
		c0.8-0.3,1.4-1.1,1.4-1.9c0-0.4-0.1-0.8-0.3-1.1c-0.1-0.1-0.1-0.2-0.2-0.3c-0.2-0.3-0.5-0.4-0.8-0.6c0,0-0.1,0-0.1-0.1
		c0,0,0-0.1,0-0.1c0,0,0,0,0-0.1c0-0.2,0-0.4,0-0.6c0-0.1,0-0.1,0.1-0.1c1.1-0.2,2-0.8,2.6-1.7c0.1-0.2,0.2-0.4,0.3-0.5
		c0.1-0.1,0.1-0.3,0.2-0.4c0.1-0.2,0.1-0.5,0.2-0.7c0-0.1,0-0.2,0-0.3c0-0.3,0-0.6,0-0.8c0,0,0,0,0-0.1v0c0,0,0-0.1,0-0.1
		c0-0.3-0.1-0.5-0.2-0.8c0,0,0,0,0,0c0,0,0,0,0,0L14,7.9c0.2-0.1,0.3-0.2,0.5-0.3c0.1,0,0.1,0,0.1,0C14.8,7.8,15,7.9,15.1,8l0.1,0
		c0.2,0.1,0.3,0.1,0.5,0.1c0,0,0,0,0.1,0c0.1,0,0.2,0,0.3,0c0,0,0,0,0.1,0c0,0,0.1,0,0.1,0C17.3,8,18.1,7,18,5.9L18,5.9z M4.8,6.3
		C4.8,6.3,4.8,6.4,4.8,6.3L4.8,6.3C4.8,6.4,4.7,6.4,4.8,6.3C4.7,6.6,4.5,6.7,4.4,6.8c-0.1,0-0.2,0.1-0.2,0.1h0c0,0,0,0,0,0
		c-0.1,0-0.2,0-0.3,0C3.6,6.8,3.4,6.7,3.3,6.5c0,0,0-0.1-0.1-0.1l0,0c0,0,0-0.1,0-0.1c-0.1-0.4,0.2-0.9,0.6-1c0.2,0,0.4,0,0.5,0
		c0,0,0,0,0.1,0h0l0,0c0,0,0,0,0,0C4.7,5.6,4.9,6,4.8,6.3z M10.7,16.1C10.7,16.1,10.7,16.1,10.7,16.1C10.7,16.1,10.7,16.1,10.7,16.1
		c0.1,0.1,0.1,0.2,0.1,0.3c0,0,0,0.1,0,0.1c0,0,0,0,0,0.1c-0.1,0.4-0.5,0.7-0.9,0.7c0,0-0.1,0-0.1,0c0,0,0,0-0.1,0h0c0,0,0,0-0.1,0
		c-0.2-0.1-0.4-0.3-0.4-0.6c0,0,0-0.1,0-0.1l0,0h0c0,0,0,0,0,0c0-0.2,0.1-0.4,0.2-0.6c0.3-0.3,0.8-0.3,1.1,0
		C10.6,16,10.6,16,10.7,16.1L10.7,16.1z M12.8,9.9L12.8,9.9C12.8,10,12.8,10,12.8,9.9c0,0.2-0.1,0.4-0.1,0.5
		c-0.2,0.5-0.5,0.9-0.8,1.2c-0.3,0.3-0.7,0.5-1.1,0.6c-0.1,0-0.1,0-0.2,0l0,0c0,0,0,0-0.1,0c-0.1,0-0.2,0-0.2,0c-0.1,0-0.3,0-0.4,0
		c0,0-0.1,0-0.1,0l0,0c0,0,0,0,0,0c0,0-0.1,0-0.1,0c-0.5-0.1-0.9-0.2-1.3-0.5c0,0,0,0-0.1,0h0c0,0,0,0,0,0c-0.1-0.1-0.3-0.2-0.4-0.3
		c-0.2-0.2-0.3-0.4-0.4-0.6c0,0,0-0.1-0.1-0.1l0,0c0,0,0,0,0,0c0,0,0,0,0,0c-0.1-0.2-0.1-0.3-0.2-0.5c0-0.2-0.1-0.3-0.1-0.5
		c0-0.1,0-0.3,0-0.4c0,0,0-0.1,0-0.2h0c0,0,0,0,0-0.1c0-0.3,0.1-0.5,0.2-0.8c0.2-0.4,0.4-0.7,0.8-1c0.3-0.3,0.7-0.5,1.1-0.6
		c0.1,0,0.1,0,0.2-0.1l0,0c0,0,0.1,0,0.1,0c0.2,0,0.5,0,0.7,0c0.2,0,0.4,0,0.5,0.1c0,0,0.1,0,0.1,0c0,0,0,0,0,0c0,0,0.1,0,0.1,0
		c0.3,0.1,0.7,0.3,0.9,0.5c0,0,0.1,0.1,0.1,0.1h0c0,0,0.1,0.1,0.1,0.1c0,0,0,0,0,0c0,0,0,0,0,0.1c0.1,0.1,0.2,0.3,0.3,0.4
		c0,0,0,0,0,0c0,0,0,0,0,0.1c0.1,0.2,0.2,0.5,0.3,0.7c0,0,0,0,0,0h0l0,0c0,0,0,0,0,0c0,0.1,0,0.2,0,0.3c0,0,0,0,0,0.1c0,0,0,0,0,0
		C12.8,9.5,12.8,9.7,12.8,9.9C12.8,9.9,12.8,9.9,12.8,9.9z M16.7,6.3c0,0.1-0.1,0.3-0.2,0.4c-0.1,0.1-0.3,0.2-0.5,0.2
		c-0.2,0-0.3-0.1-0.5-0.2c0,0,0,0-0.1,0l0,0c0,0,0,0,0,0c0,0,0,0,0,0c-0.2-0.2-0.3-0.4-0.2-0.7c0,0,0-0.1,0-0.1l0,0c0,0,0,0,0,0
		c0.1-0.2,0.3-0.4,0.6-0.5c0,0,0,0,0.1,0l0,0c0,0,0,0,0,0c0,0,0,0,0.1,0H16c0,0,0,0,0.1,0c0.2,0,0.4,0.2,0.6,0.4c0,0,0,0,0,0
		c0,0,0,0,0,0c0,0,0,0,0,0.1C16.7,6,16.8,6.1,16.7,6.3z"/>
	<path class="st0" d="M11,10.7c-0.1-0.1-0.1-0.2-0.2-0.3c0-0.1-0.1-0.1-0.1,0l0,0c-0.1,0.1-0.2,0.1-0.4,0.2c-0.1,0-0.3,0-0.4,0
		c-0.1,0-0.2-0.1-0.3-0.1C9.3,10.3,9.2,10,9.1,9.7c0-0.1,0-0.2,0-0.3C9.2,9,9.4,8.8,9.7,8.6c0.3-0.1,0.6-0.1,0.9,0.1
		c0.1,0.1,0.1,0.1,0.2,0l0.4-0.5c0.1-0.1,0.1-0.1,0-0.2C10.2,7.4,9,7.6,8.5,8.5c0,0,0,0,0,0C8.2,8.9,8.1,9.4,8.1,9.8
		c0,0.2,0.1,0.4,0.2,0.6c0,0.1,0.1,0.1,0.1,0.2c0.2,0.3,0.4,0.5,0.7,0.6l0,0c0.2,0.1,0.4,0.2,0.7,0.3c0.5,0.1,1,0,1.4-0.3
		c0.1,0,0.1-0.1,0.1-0.1c0,0,0,0,0,0C11.1,10.9,11.1,10.8,11,10.7z"/>
</g>
</svg>
