<?xml version="1.0" encoding="utf-8"?>
<!-- Generator: Adobe Illustrator 21.0.0, SVG Export Plug-In . SVG Version: 6.00 Build 0)  -->
<svg version="1.1" id="图层_1" xmlns="http://www.w3.org/2000/svg" xmlns:xlink="http://www.w3.org/1999/xlink" x="0px" y="0px"
	 viewBox="0 0 20 20" style="enable-background:new 0 0 20 20;" xml:space="preserve">
<style type="text/css">
	.st0{fill:#47276A;}
	.st1{fill:#FFC09B;}
</style>
<title>图标</title>
<circle class="st0" cx="10.6" cy="10.2" r="8"/>
<path class="st1" d="M14.6,13.6c0-0.1,0-0.2,0-0.3v0l-4-7.9l-4,8.6l5.7,0v0h0c0.2,0,0.3-0.2,0.3-0.3c0-0.2-0.2-0.3-0.3-0.3
	c0,0,0,0,0,0H7.7l2.9-6.5l3.3,6.7l0,0c0.1,0.2,0.3,0.3,0.5,0.2C14.5,13.8,14.5,13.7,14.6,13.6L14.6,13.6L14.6,13.6z"/>
</svg>
