<?xml version="1.0" encoding="utf-8"?>
<!-- Generator: Adobe Illustrator 21.0.0, SVG Export Plug-In . SVG Version: 6.00 Build 0)  -->
<svg version="1.1" id="图层_1" xmlns="http://www.w3.org/2000/svg" xmlns:xlink="http://www.w3.org/1999/xlink" x="0px" y="0px"
	 viewBox="0 0 20 20" style="enable-background:new 0 0 20 20;" xml:space="preserve">
<style type="text/css">
	.st0{fill:url(#SVGID_1_);}
	.st1{fill:url(#SVGID_2_);}
	.st2{fill:url(#SVGID_3_);}
	.st3{fill:url(#SVGID_4_);}
	.st4{fill:url(#SVGID_5_);}
	.st5{fill:url(#SVGID_6_);}
	.st6{fill:url(#SVGID_7_);}
</style>
<title>图标</title>
<linearGradient id="SVGID_1_" gradientUnits="userSpaceOnUse" x1="9.783" y1="12.3942" x2="11.2402" y2="12.3942" gradientTransform="matrix(1 0 0 -1 0 22.64)">
	<stop  offset="0" style="stop-color:#7FD6FF"/>
	<stop  offset="1" style="stop-color:#0084D4"/>
</linearGradient>
<path class="st0" d="M10,19.2c0,0.3,0.6,0.9,1,0.1c0.5-1,0.2-14.7-0.5-18.5C10,4.3,9.5,15.5,10,19.2z"/>
<linearGradient id="SVGID_2_" gradientUnits="userSpaceOnUse" x1="7.8826" y1="11.9519" x2="9.8304" y2="11.9519" gradientTransform="matrix(1 0 0 -1 0 22.64)">
	<stop  offset="0" style="stop-color:#7FD6FF"/>
	<stop  offset="1" style="stop-color:#0084D4"/>
</linearGradient>
<path class="st1" d="M8.6,18.6c0,0,0.2,0.8,0.7,0.6c0.3-0.2,0-4.1,0-8.3c0-3.4,0.2-6.9,0.6-8.8C8.6,5.6,7.3,13.3,8.1,17
	C8.4,18.3,8.6,18.6,8.6,18.6z"/>
<linearGradient id="SVGID_3_" gradientUnits="userSpaceOnUse" x1="11.1502" y1="11.9519" x2="13.0981" y2="11.9519" gradientTransform="matrix(1 0 0 -1 0 22.64)">
	<stop  offset="0" style="stop-color:#7FD6FF"/>
	<stop  offset="1" style="stop-color:#0084D4"/>
</linearGradient>
<path class="st2" d="M12.4,18.6c0,0-0.2,0.8-0.7,0.6c-0.3-0.2,0-4.1,0-8.3c0-3.4-0.2-6.9-0.6-8.8c1.2,3.5,2.5,11.2,1.7,14.9
	C12.6,18.3,12.4,18.6,12.4,18.6z"/>
<linearGradient id="SVGID_4_" gradientUnits="userSpaceOnUse" x1="12.42" y1="11.1252" x2="14.8088" y2="11.1252" gradientTransform="matrix(1 0 0 -1 0 22.64)">
	<stop  offset="0" style="stop-color:#7FD6FF"/>
	<stop  offset="1" style="stop-color:#0084D4"/>
</linearGradient>
<path class="st3" d="M12.4,4.4c0,0,2.7,4.7,2.4,9.1c-0.3,4.3-0.7,4.4-1.1,5.1c-0.1,0.2-0.9,0.3-0.6-0.6c0.2-1,0.7-4.6,0.7-6.8
	C13.6,8.9,12.4,4.4,12.4,4.4z"/>
<linearGradient id="SVGID_5_" gradientUnits="userSpaceOnUse" x1="6.1617" y1="11.1095" x2="8.5504" y2="11.1095" gradientTransform="matrix(1 0 0 -1 0 22.64)">
	<stop  offset="0" style="stop-color:#7FD6FF"/>
	<stop  offset="1" style="stop-color:#0084D4"/>
</linearGradient>
<path class="st4" d="M8.6,4.4c0,0-2.7,4.7-2.4,9.1c0.3,4.3,0.7,4.4,1.1,5.1c0.1,0.2,0.9,0.3,0.6-0.6c-0.2-1-0.7-4.6-0.7-6.8
	C7.3,8.9,8.6,4.4,8.6,4.4z"/>
<linearGradient id="SVGID_6_" gradientUnits="userSpaceOnUse" x1="4.6377" y1="9.9181" x2="6.4705" y2="9.9181" gradientTransform="matrix(1 0 0 -1 0 22.64)">
	<stop  offset="0" style="stop-color:#7FD6FF"/>
	<stop  offset="1" style="stop-color:#0084D4"/>
</linearGradient>
<path class="st5" d="M6.5,7.9c-0.2,1.4-1.3,3.9-0.7,7s0.4,2.4,0.4,2.4s0,0.6-0.5,0s-1.4-2.4-0.8-5.7C5.1,10.4,5.3,10,6.5,7.9z"/>
<linearGradient id="SVGID_7_" gradientUnits="userSpaceOnUse" x1="14.5805" y1="9.8552" x2="16.4123" y2="9.8552" gradientTransform="matrix(1 0 0 -1 0 22.64)">
	<stop  offset="0" style="stop-color:#7FD6FF"/>
	<stop  offset="1" style="stop-color:#0084D4"/>
</linearGradient>
<path class="st6" d="M14.6,8c0.2,1.4,1.3,3.9,0.7,7s-0.4,2.4-0.4,2.4s0,0.6,0.5,0c0.5-0.6,1.4-2.4,0.8-5.7C16,10.4,15.8,10.1,14.6,8
	z"/>
</svg>
