<?xml version="1.0" encoding="utf-8"?>
<!-- Generator: Adobe Illustrator 21.0.0, SVG Export Plug-In . SVG Version: 6.00 Build 0)  -->
<svg version="1.1" id="图层_1" xmlns="http://www.w3.org/2000/svg" xmlns:xlink="http://www.w3.org/1999/xlink" x="0px" y="0px"
	 viewBox="0 0 20 20" style="enable-background:new 0 0 20 20;" xml:space="preserve">
<style type="text/css">
	.st0{fill:url(#SVGID_1_);}
	.st1{fill:#F9F9F9;}
</style>
<g>
	<linearGradient id="SVGID_1_" gradientUnits="userSpaceOnUse" x1="9.6612" y1="14.3553" x2="9.5239" y2="5.7603">
		<stop  offset="0" style="stop-color:#006CBC"/>
		<stop  offset="1" style="stop-color:#3FC9FF"/>
	</linearGradient>
	<path class="st0" d="M11.7,4.2C9.2,4.2,7,5.8,6.2,8.1l0,0H1.6l1.5,1.8l2.7,0c0,0.1,0,0.2,0,0.3c0,0.1,0,0.3,0,0.4l0-0.1H3.2
		l-1.5,1.8l4.6,0c0.8,2.2,3,3.8,5.5,3.8c3.2,0,5.9-2.6,5.9-5.9C17.6,6.8,15,4.2,11.7,4.2z"/>
	<g>
		<path class="st1" d="M15.3,10.2h-6c0,0.7,0.3,1.3,0.8,1.8c0.5,0.5,1,0.7,1.7,0.7c1.1,0,1.9-0.5,2.5-1.6l0.9,0.4
			c-0.4,0.7-0.9,1.3-1.4,1.6c-0.5,0.3-1.2,0.5-1.9,0.5c-1,0-1.9-0.4-2.5-1.1c-0.7-0.7-1-1.5-1-2.5c0-1,0.3-1.8,1-2.5
			c0.7-0.7,1.5-1.1,2.5-1.1c1,0,1.8,0.3,2.5,1C14.9,8.1,15.3,9,15.3,10.2z M14.1,9.3c-0.1-0.6-0.4-1-0.8-1.4
			c-0.4-0.3-0.9-0.5-1.5-0.5c-1.2,0-1.9,0.6-2.3,1.8H14.1z"/>
	</g>
</g>
</svg>
