<?xml version="1.0" encoding="utf-8"?>
<!-- Generator: Adobe Illustrator 21.0.0, SVG Export Plug-In . SVG Version: 6.00 Build 0)  -->
<svg version="1.1" id="图层_1" xmlns="http://www.w3.org/2000/svg" xmlns:xlink="http://www.w3.org/1999/xlink" x="0px" y="0px"
	 viewBox="0 0 20 20" style="enable-background:new 0 0 20 20;" xml:space="preserve">
<style type="text/css">
	.st0{fill:url(#SVGID_1_);}
	.st1{fill:url(#SVGID_2_);}
	.st2{fill:url(#SVGID_3_);}
	.st3{fill:url(#SVGID_4_);}
	.st4{fill:url(#SVGID_5_);}
	.st5{fill:url(#SVGID_6_);}
</style>
<title>图标</title>
<linearGradient id="SVGID_1_" gradientUnits="userSpaceOnUse" x1="16.5571" y1="5.6474" x2="8.7849" y2="5.6474" gradientTransform="matrix(1 0 0 -1 0 22.64)">
	<stop  offset="0" style="stop-color:#15FFFB"/>
	<stop  offset="1" style="stop-color:#00567F"/>
</linearGradient>
<polygon class="st0" points="14.4,15.4 16.6,15 11.4,18.5 8.8,19 "/>
<linearGradient id="SVGID_2_" gradientUnits="userSpaceOnUse" x1="2.5795" y1="12.7347" x2="14.3978" y2="12.7347" gradientTransform="matrix(1 0 0 -1 0 22.64)">
	<stop  offset="0" style="stop-color:#15FFFB"/>
	<stop  offset="1" style="stop-color:#00567F"/>
</linearGradient>
<polygon class="st1" points="8.7,0.8 14.4,7.1 14.4,15.4 8.8,19 2.6,14.7 2.6,6.7 "/>
<linearGradient id="SVGID_3_" gradientUnits="userSpaceOnUse" x1="8.7078" y1="18.885" x2="16.5795" y2="18.885" gradientTransform="matrix(1 0 0 -1 0 22.64)">
	<stop  offset="0" style="stop-color:#15FFFB"/>
	<stop  offset="1" style="stop-color:#00567F"/>
</linearGradient>
<polygon class="st2" points="8.7,0.8 10.9,0.4 16.6,6.7 14.4,7.1 "/>
<linearGradient id="SVGID_4_" gradientUnits="userSpaceOnUse" x1="18.2129" y1="14.3228" x2="12.7425" y2="8.8525" gradientTransform="matrix(1 0 0 -1 0 22.64)">
	<stop  offset="0" style="stop-color:#15FFFB"/>
	<stop  offset="1" style="stop-color:#00567F"/>
</linearGradient>
<polygon class="st3" points="14.4,7.1 16.6,6.7 16.6,15 14.4,15.4 "/>
<linearGradient id="SVGID_5_" gradientUnits="userSpaceOnUse" x1="14.3593" y1="16.5801" x2="5.5141" y2="16.5801" gradientTransform="matrix(1 0 0 -1 0 22.64)">
	<stop  offset="0" style="stop-color:#15FFFB"/>
	<stop  offset="1" style="stop-color:#00567F"/>
</linearGradient>
<polygon class="st4" points="3,6.8 8.5,10.6 13.8,7.2 8.7,1.5 "/>
<linearGradient id="SVGID_6_" gradientUnits="userSpaceOnUse" x1="10.5614" y1="12.166" x2="1.1525" y2="12.166" gradientTransform="matrix(1 0 0 -1 0 22.64)">
	<stop  offset="0" style="stop-color:#15FFFB"/>
	<stop  offset="0.69" style="stop-color:#00567F"/>
</linearGradient>
<polygon class="st5" points="3,6.8 8.5,10.6 3,14.2 "/>
</svg>
