<?xml version="1.0" encoding="utf-8"?>
<!-- Generator: Adobe Illustrator 21.0.0, SVG Export Plug-In . SVG Version: 6.00 Build 0)  -->
<svg version="1.1" id="图层_1" xmlns="http://www.w3.org/2000/svg" xmlns:xlink="http://www.w3.org/1999/xlink" x="0px" y="0px"
	 viewBox="0 0 20 20" style="enable-background:new 0 0 20 20;" xml:space="preserve">
<style type="text/css">
	.st0{fill:#FFFFFF;}
</style>
<title>图标</title>
<g id="Page-1">
	<g id="Artboard" transform="translate(-1457.000000, -1974.000000)">
		<g id="EOS" transform="translate(1457.000000, 1973.000000)">
			<path id="Fill-626" d="M18.5,11.4c0,4.4-3.6,8-8,8s-8-3.6-8-8s3.6-8,8-8S18.5,7,18.5,11.4z"/>
			<path id="Fill-628" class="st0" d="M7.5,9.4l0.6,1.9l-1.8,3.1L7.5,9.4z M13,11.3l0.6-1.9l1.1,5L13,11.3z M12.8,11.8l2.1,3.7
				l-4.1,2.5L12.8,11.8z M10.2,17.9l-4.1-2.5l2.1-3.7L10.2,17.9z M10.5,7.8l2.1,3.6l-2.1,6.4l-2.1-6.4L10.5,7.8z M10.4,7.4l-2,3.6
				L7.6,8.8L10.4,5L10.4,7.4L10.4,7.4z M10.7,5l2.7,3.8l-0.7,2.1l-2-3.6V5z M15.3,15.5l-1.5-6.8c0,0,0,0,0-0.1l-3.1-4.3
				c0,0-0.1-0.1-0.1-0.1s-0.1,0-0.1,0.1L7.3,8.7c0,0,0,0,0,0.1l-1.5,6.8c0,0.1,0,0.1,0.1,0.2l4.6,2.8h0c0,0,0,0,0,0c0,0,0,0,0,0h0
				c0,0,0,0,0,0h0c0,0,0,0,0,0s0,0,0,0h0c0,0,0,0,0,0h0c0,0,0,0,0,0c0,0,0,0,0,0h0l4.6-2.8C15.3,15.6,15.3,15.5,15.3,15.5L15.3,15.5
				z"/>
		</g>
	</g>
</g>
</svg>
