<?xml version="1.0" encoding="utf-8"?>
<!-- Generator: Adobe Illustrator 21.0.0, SVG Export Plug-In . SVG Version: 6.00 Build 0)  -->
<svg version="1.1" id="图层_1" xmlns="http://www.w3.org/2000/svg" xmlns:xlink="http://www.w3.org/1999/xlink" x="0px" y="0px"
	 viewBox="0 0 20 20" style="enable-background:new 0 0 20 20;" xml:space="preserve">
<style type="text/css">
	.st0{fill:#FFFFFF;}
	.st1{fill:#659172;}
</style>
<title>ETC</title>
<desc>Created with Sketch.</desc>
<g id="Page-1">
	<g id="Artboard" transform="translate(-422.000000, -1974.000000)">
		<g id="ETC" transform="translate(422.000000, 1974.000000)">
			<polygon id="Fill-612" class="st0" points="6.4,11.3 9.9,13 9.9,15.8 			"/>
			<polygon id="Fill-613" class="st0" points="13.5,11.3 10.1,15.8 10.1,13 			"/>
			<path id="Fill-614" class="st1" d="M10,2c-4.4,0-8,3.6-8,8s3.6,8,8,8s8-3.6,8-8S14.4,2,10,2"/>
			<path id="Fill-615" class="st0" d="M10,17.4c-4.1,0-7.4-3.3-7.4-7.4c0-4.1,3.3-7.4,7.4-7.4s7.4,3.3,7.4,7.4
				C17.4,14.1,14.1,17.4,10,17.4"/>
			<polygon id="Fill-616" class="st1" points="13.8,9.2 10,3.2 6.1,9.2 10,7.6 			"/>
			<polygon id="Fill-617" class="st1" points="6.2,10.9 10,16.8 13.9,10.9 10,13.2 			"/>
			<polygon id="Fill-618" class="st1" points="13.9,10.1 10,8.5 6.1,10.1 10,12.4 			"/>
		</g>
	</g>
</g>
</svg>
