<?xml version="1.0" encoding="utf-8"?>
<!-- Generator: Adobe Illustrator 21.0.0, SVG Export Plug-In . SVG Version: 6.00 Build 0)  -->
<svg version="1.1" id="图层_1" xmlns="http://www.w3.org/2000/svg" xmlns:xlink="http://www.w3.org/1999/xlink" x="0px" y="0px"
	 viewBox="0 0 20 20" style="enable-background:new 0 0 20 20;" xml:space="preserve">
<style type="text/css">
	.st0{fill:#FFFFFF;}
	.st1{fill:#3F3F3F;}
	.st2{fill:#056190;}
	.st3{fill:#108FBD;}
	.st4{fill:#348ACB;}
	.st5{fill:#F1C51D;}
	.st6{fill:#F19415;}
	.st7{fill:#EB6618;}
	.st8{fill:#EB6519;}
	.st9{fill:#E61F18;}
	.st10{fill:#DD2A14;}
	.st11{fill:#2FBBEA;}
	.st12{fill:#F4C41E;}
	.st13{fill:#676868;}
</style>
<title>图标</title>
<g>
	<polygon class="st0" points="7.2,12.8 7.2,12.8 7.2,12.8 	"/>
	<polygon class="st1" points="8.5,7.7 7.2,7.7 7.2,12.8 8.5,12 	"/>
	<polygon class="st0" points="9.8,12.8 9.8,12.8 9.8,12.8 	"/>
	<polygon class="st1" points="11.1,7.7 9.8,7.7 9.8,12.8 11.1,12 	"/>
	<polygon class="st0" points="12.3,12.8 12.3,12.8 12.3,12.8 	"/>
	<polygon class="st1" points="13.6,7.7 12.3,7.7 12.3,12.8 13.6,12 	"/>
	
		<ellipse id="_路径_" transform="matrix(0.7981 -0.6025 0.6025 0.7981 -1.9698 12.0327)" class="st2" cx="17" cy="9" rx="0.9" ry="0.9"/>
	
		<ellipse id="_路径_2" transform="matrix(0.7981 -0.6025 0.6025 0.7981 -4.2295 12.4531)" class="st3" cx="16.5" cy="12.5" rx="0.8" ry="0.8"/>
	
		<ellipse id="_路径_3" transform="matrix(0.7981 -0.6025 0.6025 0.7981 -6.3807 11.709)" class="st4" cx="14.3" cy="15.4" rx="0.6" ry="0.6"/>
	
		<ellipse id="_路径_4" transform="matrix(0.7981 -0.6025 0.6025 0.7981 0.5806 8.3114)" class="st5" cx="12.7" cy="3.3" rx="0.5" ry="0.5"/>
	
		<ellipse id="_路径_5" transform="matrix(0.7981 -0.6025 0.6025 0.7981 0.1617 6.0456)" class="st6" cx="9.1" cy="2.8" rx="0.6" ry="0.6"/>
	
		<ellipse id="_路径_6" transform="matrix(0.7981 -0.6025 0.6025 0.7981 -1.3748 4.2511)" class="st7" cx="5.7" cy="4.2" rx="0.8" ry="0.8"/>
	
		<ellipse id="_路径_7" transform="matrix(0.7981 -0.6025 0.6025 0.7981 -3.5643 3.6075)" class="st8" cx="3.6" cy="7.1" rx="1" ry="1"/>
	
		<ellipse id="_路径_8" transform="matrix(0.7981 -0.6025 0.6025 0.7981 -5.8392 3.9472)" class="st9" cx="3" cy="10.7" rx="1.1" ry="1.1"/>
	
		<ellipse id="_路径_9" transform="matrix(0.7981 -0.6025 0.6025 0.7981 -7.5495 5.4927)" class="st10" cx="4.4" cy="14" rx="1" ry="1"/>
	
		<ellipse id="_路径_10" transform="matrix(0.7981 -0.6025 0.6025 0.7981 -7.87 9.89)" class="st11" cx="10.8" cy="16.7" rx="0.4" ry="0.4"/>
	
		<ellipse id="_路径_11" transform="matrix(0.7981 -0.6025 0.6025 0.7981 -8.2526 7.7265)" class="st11" cx="7.4" cy="16.2" rx="0.3" ry="0.3"/>
	
		<ellipse id="_路径_12" transform="matrix(0.7981 -0.6025 0.6025 0.7981 -0.2229 10.5141)" class="st12" cx="15.6" cy="5.6" rx="0.4" ry="0.4"/>
	<polygon class="st13" points="7.2,6.9 5.9,7.7 7.2,8.4 8.5,7.7 	"/>
	<polygon class="st13" points="8.5,7.7 9.8,8.5 11.1,7.7 9.8,7 	"/>
	<polygon class="st13" points="12.3,6.9 11.1,7.7 12.3,8.4 13.6,7.7 	"/>
</g>
</svg>
