<?xml version="1.0" encoding="utf-8"?>
<!-- Generator: Adobe Illustrator 21.0.0, SVG Export Plug-In . SVG Version: 6.00 Build 0)  -->
<svg version="1.1" id="图层_1" xmlns="http://www.w3.org/2000/svg" xmlns:xlink="http://www.w3.org/1999/xlink" x="0px" y="0px"
	 viewBox="0 0 20 20" style="enable-background:new 0 0 20 20;" xml:space="preserve">
<style type="text/css">
	.st0{fill:#FFFFFF;}
	.st1{fill:#3F3F3F;}
	.st2{fill:#056190;}
	.st3{fill:#108FBD;}
	.st4{fill:#348ACB;}
	.st5{fill:#F1C51D;}
	.st6{fill:#F19415;}
	.st7{fill:#EB6618;}
	.st8{fill:#EB6519;}
	.st9{fill:#E61F18;}
	.st10{fill:#DD2A14;}
	.st11{fill:#2FBBEA;}
	.st12{fill:#F4C41E;}
	.st13{fill:#676868;}
</style>
<title>图标</title>
<polygon class="st0" points="7,13.2 7,13.2 7,13.2 "/>
<polygon class="st1" points="8.3,8.1 7,8.1 7,13.2 8.3,12.5 "/>
<polygon class="st0" points="9.6,13.2 9.6,13.2 9.6,13.2 "/>
<polygon class="st1" points="10.9,8.2 9.6,8.2 9.6,13.2 10.9,12.5 "/>
<polygon class="st0" points="12.2,13.2 12.2,13.2 12.2,13.2 "/>
<polygon class="st1" points="13.4,8.1 12.2,8.1 12.2,13.2 13.4,12.5 "/>
<ellipse id="_路径_" transform="matrix(0.7981 -0.6025 0.6025 0.7981 -2.2801 12.0089)" class="st2" cx="16.8" cy="9.4" rx="0.9" ry="0.9"/>
<ellipse id="_路径_2" transform="matrix(0.7981 -0.6025 0.6025 0.7981 -4.5399 12.4293)" class="st3" cx="16.3" cy="13" rx="0.8" ry="0.8"/>
<ellipse id="_路径_3" transform="matrix(0.7981 -0.6025 0.6025 0.7981 -6.6911 11.6852)" class="st4" cx="14.1" cy="15.8" rx="0.6" ry="0.6"/>
<ellipse id="_路径_4" transform="matrix(0.7981 -0.6025 0.6025 0.7981 0.2702 8.2876)" class="st5" cx="12.5" cy="3.7" rx="0.5" ry="0.5"/>
<ellipse id="_路径_5" transform="matrix(0.7981 -0.6025 0.6025 0.7981 -0.1487 6.0218)" class="st6" cx="8.9" cy="3.2" rx="0.6" ry="0.6"/>
<ellipse id="_路径_6" transform="matrix(0.7981 -0.6025 0.6025 0.7981 -1.6851 4.2273)" class="st7" cx="5.5" cy="4.6" rx="0.8" ry="0.8"/>
<ellipse id="_路径_7" transform="matrix(0.7981 -0.6025 0.6025 0.7981 -3.8746 3.5837)" class="st8" cx="3.4" cy="7.6" rx="1" ry="1"/>
<ellipse id="_路径_8" transform="matrix(0.7981 -0.6025 0.6025 0.7981 -6.1496 3.9234)" class="st9" cx="2.8" cy="11.1" rx="1.1" ry="1.1"/>
<ellipse id="_路径_9" transform="matrix(0.7981 -0.6025 0.6025 0.7981 -7.8598 5.4689)" class="st10" cx="4.2" cy="14.5" rx="1" ry="1"/>
<ellipse id="_路径_10" transform="matrix(0.7981 -0.6025 0.6025 0.7981 -8.1804 9.8662)" class="st11" cx="10.6" cy="17.1" rx="0.4" ry="0.4"/>
<ellipse id="_路径_11" transform="matrix(0.7981 -0.6025 0.6025 0.7981 -8.5629 7.7027)" class="st11" cx="7.2" cy="16.6" rx="0.3" ry="0.3"/>
<ellipse id="_路径_12" transform="matrix(0.7981 -0.6025 0.6025 0.7981 -0.5333 10.4903)" class="st12" cx="15.4" cy="6" rx="0.4" ry="0.4"/>
<polygon class="st13" points="7,7.4 5.7,8.1 7,8.9 8.3,8.1 "/>
<polygon class="st13" points="8.3,8.2 9.6,8.9 10.9,8.2 9.6,7.4 "/>
<polygon class="st13" points="12.2,7.4 10.9,8.1 12.2,8.9 13.4,8.1 "/>
</svg>
