<?xml version="1.0" encoding="utf-8"?>
<!-- Generator: Adobe Illustrator 21.0.0, SVG Export Plug-In . SVG Version: 6.00 Build 0)  -->
<svg version="1.1" id="图层_1" xmlns="http://www.w3.org/2000/svg" xmlns:xlink="http://www.w3.org/1999/xlink" x="0px" y="0px"
	 viewBox="0 0 20 20" style="enable-background:new 0 0 20 20;" xml:space="preserve">
<style type="text/css">
	.st0{fill:#F08D1E;}
	.st1{fill:#FEFEFE;}
	.st2{fill:#F08E1E;}
</style>
<title>图标</title>
<path class="st0" d="M14.9,12.2h-0.6c0-0.1,0-0.1,0-0.2c0.3-0.6,0.4-1.2,0.4-1.9c0-0.1,0-0.2,0.2-0.2c0.9,0,1.9,0,2.8,0
	c0.2,0,0.2,0.1,0.2,0.2c-0.1,1.7-0.6,3.2-1.6,4.6c-1.7,2.2-3.9,3.2-6.6,3.2c-3.8,0-7.1-2.9-7.7-6.7C1.4,6.8,4.4,2.8,8.8,2
	c4.2-0.7,8.3,2.1,9.1,6.3c0,0.2,0.2,0.5,0.1,0.7s-0.5,0-0.7,0.1c-0.5,0-1.1,0-1.6,0c-0.2,0-0.3-0.1-0.3-0.2
	c-0.5-2.1-1.7-3.5-3.8-4.1c-3.5-1.1-7,1.6-6.9,5.2c0,3.1,2.6,5.6,5.8,5.4c2-0.1,3.5-1.2,4.5-2.9C14.9,12.4,14.9,12.3,14.9,12.2z"/>
<path class="st0" d="M10,6.3c2,0,3.6,1.6,3.6,3.6S12,13.6,10,13.6c-2,0-3.6-1.6-3.6-3.6C6.4,8,8,6.4,10,6.3C10,6.3,10,6.3,10,6.3z"
	/>
<path class="st1" d="M11.5,9.7c0.6,0.3,0.8,0.5,0.7,1.1c0,0.5-0.3,0.9-0.9,1c-0.2,0-0.3,0.1-0.5,0.1c-0.1,0-0.2,0.1-0.2,0.2
	c0,0.2,0,0.4,0,0.5c0,0.1,0,0.2-0.2,0.2c-0.4,0-0.4,0-0.4-0.4c0-0.1,0-0.2,0-0.3c0-0.2-0.1-0.2-0.2-0.2c-0.2,0-0.2,0-0.2,0.2
	c0,0.2,0,0.4,0,0.5c0,0.1,0,0.1-0.1,0.2c-0.4,0-0.4,0-0.4-0.4c0-0.5,0-0.5-0.5-0.5h0c-0.5,0-0.5,0-0.4-0.5c0-0.1,0.1-0.2,0.2-0.2
	c0.4,0,0.4,0,0.4-0.4c0-0.7,0-1.4,0-2c0-0.3-0.1-0.4-0.4-0.4c-0.1,0-0.1,0-0.2,0c-0.1,0-0.1,0-0.1-0.1c0-0.4,0-0.4,0.4-0.4
	c0.2,0,0.4,0,0.6,0c0.1,0,0.2,0,0.2-0.2c0-0.2,0-0.4,0-0.6C9.1,7,9.2,7,9.3,7c0.4,0,0.4,0,0.4,0.4c0,0.1,0,0.2,0,0.2
	c0,0.2,0.1,0.3,0.3,0.3c0.1,0,0.2,0,0.2-0.2c0-0.2,0-0.3,0-0.5c0-0.1,0-0.2,0.2-0.2c0.4,0,0.4,0,0.4,0.4c0,0.2,0,0.4,0,0.5
	C10.7,7.9,11,7.9,11.1,8C11.7,8.1,12,8.5,11.9,9C11.9,9.3,11.8,9.5,11.5,9.7z"/>
<path class="st2" d="M9.7,10.7c0-0.1,0-0.1,0-0.2c0-0.4,0-0.4,0.4-0.4c0.2,0,0.5,0,0.7,0.1c0.2,0.1,0.3,0.2,0.3,0.5
	c0,0.2-0.1,0.4-0.3,0.5c-0.4,0.2-0.7,0.1-1.1,0.1c-0.1,0-0.1-0.1-0.1-0.1C9.7,11,9.7,10.9,9.7,10.7L9.7,10.7z"/>
<path class="st2" d="M9.7,9c0-0.5,0-0.5,0.5-0.5c0.2,0,0.3,0,0.5,0.1C10.9,8.8,11,9,10.9,9.3c0,0.1-0.1,0.1-0.2,0.2
	c-0.3,0.2-0.6,0.2-1,0.2c-0.1,0-0.1-0.1-0.1-0.1C9.7,9.3,9.7,9.2,9.7,9z"/>
</svg>
