<?xml version="1.0" encoding="utf-8"?>
<!-- Generator: Adobe Illustrator 21.0.0, SVG Export Plug-In . SVG Version: 6.00 Build 0)  -->
<svg version="1.1" id="图层_1" xmlns="http://www.w3.org/2000/svg" xmlns:xlink="http://www.w3.org/1999/xlink" x="0px" y="0px"
	 viewBox="0 0 20 20" style="enable-background:new 0 0 20 20;" xml:space="preserve">
<style type="text/css">
	.st0{fill:url(#Shape_3_);}
	.st1{fill:url(#Shape_4_);}
	.st2{fill:url(#Shape_5_);}
</style>
<title>456756</title>
<desc>Created with Sketch.</desc>
<g id="Page-2">
	<g id="Artboard" transform="translate(-507.000000, -320.000000)">
		<g id="_x34_56756" transform="translate(507.000000, 320.000000)">
			
				<linearGradient id="Shape_3_" gradientUnits="userSpaceOnUse" x1="1.2637" y1="20.7106" x2="2.1248" y2="20.3054" gradientTransform="matrix(7.0353 0 0 -10.3765 -5.0941 219.7059)">
				<stop  offset="0" style="stop-color:#C773EC"/>
				<stop  offset="1" style="stop-color:#6E52CA"/>
			</linearGradient>
			<path id="Shape" class="st0" d="M2.2,6.3c0-0.1,0.1-0.3,0.2-0.4c1.2-1.2,2.4-2.5,3.7-3.7C6.3,2,6.6,2,6.9,2.2
				C7.8,3.1,8.7,4,9.6,4.9C9.7,5,9.7,5,9.6,5.1C9.3,5.2,9.2,5.4,9,5.6c-0.1,0.1-0.1,0.1-0.2,0C8.1,4.9,7.3,4.1,6.6,3.4
				c-0.2-0.2-0.2-0.2-0.3,0C5.4,4.3,4.5,5.2,3.6,6.1c-0.1,0.1-0.1,0.2,0,0.3C4,6.8,4.3,7.2,4.7,7.5c0.1,0.1,0.2,0.3,0.4,0.4
				c1.5,1.5,3,2.9,4.4,4.4c0.1,0.1,0.1,0.1,0,0.2c-0.2,0.2-0.3,0.3-0.5,0.5c-0.1,0.1-0.1,0.1-0.2,0c-1-1-2.1-2.1-3.1-3.1
				C4.6,8.8,3.5,7.8,2.4,6.7C2.3,6.6,2.2,6.4,2.2,6.3z"/>
			
				<linearGradient id="Shape_4_" gradientUnits="userSpaceOnUse" x1="1.3386" y1="20.4806" x2="2.0986" y2="20.0025" gradientTransform="matrix(10.6118 0 0 -6.9412 -4.2235 147.5176)">
				<stop  offset="0" style="stop-color:#6D51C9"/>
				<stop  offset="1" style="stop-color:#6065D8"/>
			</linearGradient>
			<path id="Shape_1_" class="st1" d="M17.7,5.7c-0.5-0.5-0.9-0.9-1.4-1.4c-0.7-0.7-1.4-1.4-2.1-2.1C14.2,2.1,14.1,2,13.9,2
				s-0.3,0.1-0.5,0.2c-0.5,0.5-1,1-1.6,1.6C10.2,5.4,8.6,7,7,8.6C6.9,8.7,6.9,8.7,7,8.8C7.2,9,7.3,9.1,7.5,9.3
				c0.1,0.1,0.2,0.1,0.3,0c1.9-1.9,3.8-3.8,5.7-5.7c0.1-0.1,0.2-0.2,0.3-0.3c0.1,0,0.1,0,0.2,0.1c0.9,0.9,1.8,1.8,2.8,2.7
				c0.1,0.1,0.1,0.2,0,0.3c-0.7,0.7-1.5,1.5-2.2,2.2c-0.1,0.1-0.1,0.1,0,0.2c0.2,0.2,0.3,0.3,0.5,0.5c0.1,0.1,0.1,0.1,0.2,0
				c0.6-0.6,1.3-1.3,1.9-1.9c0.3-0.3,0.7-0.6,0.9-1c0.1-0.1,0.1-0.2,0.1-0.2C18,6,17.9,5.9,17.7,5.7z"/>
			
				<linearGradient id="Shape_5_" gradientUnits="userSpaceOnUse" x1="1.202" y1="20.517" x2="2.0393" y2="20.2293" gradientTransform="matrix(15.0824 0 0 -10.4889 -13.1647 226.6837)">
				<stop  offset="0" style="stop-color:#9456D0"/>
				<stop  offset="1" style="stop-color:#5E5CDA"/>
			</linearGradient>
			<path id="Shape_2_" class="st2" d="M17.6,13c-0.2-0.2-0.4-0.4-0.6-0.6c-1.1-1.1-2.3-2.3-3.4-3.4c-0.3-0.3-0.6-0.6-0.9-0.9
				C12.4,7.8,12,7.4,11.6,7c0,0-0.1-0.1-0.1,0c-0.2,0.2-0.4,0.4-0.6,0.6c-0.1,0.1-0.1,0.1,0,0.1L11,7.8c0,0,0,0.1,0.1,0.1
				c0.6,0.6,1.3,1.3,2.1,2.1c1.2,1.2,2.4,2.4,3.7,3.7c0.1,0.1,0.1,0.1,0,0.2c-0.9,0.9-1.9,1.9-2.8,2.8c-0.1,0.1-0.1,0.1-0.2,0
				c-0.4-0.4-0.7-0.7-1.1-1.1c-0.4-0.4-0.7-0.7-1.1-1.1c-0.1-0.1-0.1-0.1-0.2,0c-0.2,0.2-0.4,0.4-0.6,0.6c-0.1,0,0,0.1,0,0.1
				c0.1,0.1,0.3,0.3,0.4,0.4c0.1,0.1,0.1,0.1,0,0.2c-0.3,0.3-0.6,0.6-1,1c-0.1,0.1-0.1,0.1-0.2,0c-0.3-0.3-0.6-0.6-0.9-0.9
				c-0.1-0.1-0.1-0.1,0-0.2c0.4-0.4,0.8-0.8,1.2-1.2c1-1,1.9-1.9,2.9-2.9c0.1-0.1,0.1-0.1,0-0.2c-0.2-0.1-0.3-0.3-0.5-0.5
				c-0.1-0.1-0.1-0.1-0.3,0c-2,2-3.9,3.9-5.9,5.9c-0.1,0.1-0.1,0.1-0.2,0c-0.5-0.5-1.1-1-1.6-1.6c-0.2-0.2-0.3-0.3-0.5-0.5
				c-0.2-0.2-0.4-0.4-0.7-0.7c-0.1-0.1-0.1-0.2,0-0.3c0.7-0.7,1.5-1.5,2.2-2.2c0.1-0.1,0.1-0.1,0-0.2c-0.2-0.2-0.4-0.3-0.5-0.5
				c-0.1-0.1-0.1-0.1-0.2,0c-0.9,0.9-1.8,1.8-2.7,2.6c-0.3,0.3-0.3,0.5,0,0.8c0.2,0.2,0.4,0.4,0.6,0.6s0.4,0.4,0.6,0.5l0.1,0.1
				c0.7,0.7,1.5,1.5,2.2,2.2c0.1,0.1,0.3,0.3,0.5,0.4c0.1,0,0.1,0,0.2,0c0.3-0.1,0.4-0.3,0.6-0.5c0.3-0.3,0.7-0.7,1-1
				c0.1-0.1,0.1-0.1,0.2,0c0.4,0.4,0.7,0.7,1.1,1.1c0.2,0.2,0.4,0.4,0.6,0.5c0.1,0,0.1,0,0.2,0c0.3-0.1,0.4-0.3,0.6-0.5
				c0.4-0.4,0.7-0.7,1.1-1.1c0.1-0.1,0.1-0.1,0.2,0c0.3,0.4,0.7,0.7,1,1.1c0.2,0.2,0.4,0.4,0.6,0.5c0.1,0,0.1,0,0.2,0
				c0.2-0.1,0.4-0.2,0.5-0.4c1.1-1.1,2.2-2.2,3.3-3.3c0.1-0.1,0.3-0.3,0.4-0.5c0-0.1,0-0.1,0-0.2C18,13.3,17.8,13.1,17.6,13z"/>
		</g>
	</g>
</g>
</svg>
