<?xml version="1.0" encoding="utf-8"?>
<!-- Generator: Adobe Illustrator 21.0.0, SVG Export Plug-In . SVG Version: 6.00 Build 0)  -->
<svg version="1.1" id="图层_1" xmlns="http://www.w3.org/2000/svg" xmlns:xlink="http://www.w3.org/1999/xlink" x="0px" y="0px"
	 viewBox="0 0 20 20" style="enable-background:new 0 0 20 20;" xml:space="preserve">
<style type="text/css">
	.st0{fill:#2067B0;}
</style>
<title>GXS</title>
<desc>Created with Sketch.</desc>
<g id="Page-1">
	<g id="Artboard" transform="translate(-760.000000, -7308.000000)">
		<g id="GXS" transform="translate(760.000000, 7308.000000)">
			<path id="Fill-824" class="st0" d="M10,12.1l-1.2,1.2l-2,2C6.1,16,5,16,4.3,15.3c-0.7-0.7-0.7-1.8,0-2.5l1.4-1.4l-1.2-1.2L3,11.6
				c-0.7,0.7-1,1.6-1,2.5c0,0.9,0.3,1.8,1,2.5c0.7,0.7,1.6,1,2.5,1c0.9,0,1.8-0.3,2.5-1l3.2-3.2l1.9-1.9l-1.2-1.2L10,12.1z M17,2.6
				c-1.4-1.4-3.6-1.4-5,0l-2,2L8.8,5.9L6.3,8.3L5,9.6l0,0l1.2,1.2l0,0l1.2-1.2L10,7.1l1.2-1.2l2-2c0.7-0.7,1.8-0.7,2.5,0
				c0.3,0.3,0.5,0.8,0.5,1.2c0,0.5-0.2,0.9-0.5,1.2l-2,2l-1.2,1.2l0,0l1.2,1.2l0,0L15,9.6l2-2C18.4,6.2,18.4,4,17,2.6L17,2.6z"/>
			<path id="Fill-825" class="st0" d="M17,11.6l-5.1-5.1l-1.2,1.2l1.9,1.9l1.2,1.2l2,2c0.7,0.7,0.7,1.8,0,2.5
				c-0.7,0.7-1.8,0.7-2.5,0l-2-2L10,12.1L6.3,8.3l-2-2C3.9,6,3.8,5.6,3.8,5.1c0-0.5,0.2-0.9,0.5-1.2c0.3-0.3,0.8-0.5,1.2-0.5
				c0.4,0,0.9,0.2,1.2,0.5l2,2L10,7.1l0,0l1.2-1.2L8,2.6c-1.4-1.4-3.6-1.4-5,0C1.7,4,1.7,6.2,3,7.6l2,2l1.2,1.2l2.5,2.5l1.2,1.2l2,2
				c0.7,0.7,1.6,1,2.5,1c0.4,0,0.9-0.1,1.3-0.3c0.4-0.2,0.8-0.4,1.2-0.8C18.4,15.2,18.4,13,17,11.6"/>
		</g>
	</g>
</g>
</svg>
