<?xml version="1.0" encoding="utf-8"?>
<!-- Generator: Adobe Illustrator 21.0.0, SVG Export Plug-In . SVG Version: 6.00 Build 0)  -->
<svg version="1.1" id="图层_1" xmlns="http://www.w3.org/2000/svg" xmlns:xlink="http://www.w3.org/1999/xlink" x="0px" y="0px"
	 viewBox="0 0 20 20" style="enable-background:new 0 0 20 20;" xml:space="preserve">
<style type="text/css">
	.st0{fill:#FED400;}
	.st1{fill:#FEFEFE;}
</style>
<title>图标</title>
<circle class="st0" cx="10.1" cy="10" r="8"/>
<path class="st1" d="M8.7,5.9c0.6-0.3,1.3-0.4,2-0.3c0.6,0.1,1.2,0.3,1.8,0.6c0.8,0.5,1.4,1.2,1.7,2c0.6,1.4,0.4,3.1-0.6,4.3
	c-0.3,0.4-0.7,0.8-1.2,1c-0.8,0.5-1.8,0.7-2.7,0.5C7.4,13.8,5.7,11.7,6,9.4C6.2,8,6.9,7,8,6.3C8.1,6.2,8.3,6.1,8.5,6
	C8.5,6,8.6,6,8.7,5.9z"/>
<path class="st0" d="M10.4,7.4c0.1,0,0.2,0,0.4,0c0.1,0,0.1,0,0.1-0.1c0-0.1,0-0.2,0-0.3c0,0,0-0.1,0.1-0.1c0.1,0,0.2,0,0.3,0
	c0.1,0,0.1,0,0.1,0.1c0,0.1,0,0.3,0,0.4c0,0,0,0.1,0.1,0.1C11.7,7.8,12,8,12.3,8.4c0.1,0.2,0.2,0.3,0.3,0.5c0,0.1,0,0.1,0,0.1
	c-0.2,0.1-0.4,0.2-0.6,0.3c-0.1,0-0.1,0-0.1,0c-0.1-0.2-0.3-0.5-0.5-0.6c0,0-0.1-0.1-0.1,0c0,0,0,0.1,0,0.1C11.1,9.3,11,10,11,10.7
	c0,0.2,0,0.4,0,0.6c0,0.1,0,0.1,0.1,0.1c0.3-0.2,0.6-0.4,0.8-0.7c0-0.1,0.1-0.1,0.2-0.1c0.2,0.1,0.4,0.2,0.6,0.2
	c0.1,0,0.1,0.1,0,0.1c-0.3,0.6-0.7,1-1.3,1.2c-0.1,0-0.2,0.1-0.3,0.1c0,0-0.1,0-0.1,0.1c0,0.1,0,0.2,0,0.4c0,0.1,0,0.1-0.1,0.1
	c-0.1,0-0.2,0-0.3,0c-0.1,0-0.1,0-0.1-0.1c0-0.1,0-0.2,0-0.3c0-0.1,0-0.1-0.1-0.1c-0.2,0-0.4,0-0.5-0.1c-0.1,0-0.1,0-0.1,0.1
	c0,0.1,0,0.3,0,0.4c0,0.1,0,0.1-0.1,0.1c-0.1,0-0.2,0-0.3,0c-0.1,0-0.1,0-0.1-0.1c0-0.2,0-0.3,0-0.5c0-0.1,0-0.1-0.1-0.2
	c-0.6-0.3-1-0.8-1.2-1.5c-0.1-0.4-0.1-0.8,0-1.2C8.2,8.5,8.6,8,9.4,7.7c0,0,0.1,0,0.1-0.1c0.1,0,0.1-0.1,0.1-0.2s0-0.2,0-0.3
	C9.7,7,9.7,7,9.8,7c0.1,0,0.2,0,0.3,0c0.1,0,0.1,0,0.1,0.1c0,0.1,0,0.2,0,0.3c0,0.1,0,0.1,0.1,0.1C10.3,7.4,10.3,7.4,10.4,7.4z"/>
<path class="st1" d="M10.4,8.3c0.1,0,0.2,0,0.3,0c0.1,0,0.1,0,0.1,0.1c0,0.5-0.1,1.1-0.1,1.6c0,0.5-0.1,0.9-0.1,1.4
	c0,0.1,0,0.1-0.1,0.1c-0.2,0-0.4,0-0.5-0.1c-0.1,0-0.1,0-0.1-0.1c0.1-0.6,0.1-1.2,0.2-1.8C10,9.1,10,8.7,10,8.4c0-0.1,0-0.1,0.1-0.1
	C10.2,8.3,10.3,8.3,10.4,8.3L10.4,8.3z"/>
<path class="st1" d="M9.5,8.6C9.5,9.4,9.4,10.2,9.3,11c0,0,0,0.1,0,0.1c0,0,0,0-0.1,0c-0.7-0.6-0.7-1.6-0.1-2.3
	c0.1-0.1,0.2-0.2,0.3-0.2C9.4,8.5,9.4,8.5,9.5,8.6C9.5,8.5,9.5,8.5,9.5,8.6C9.6,8.5,9.5,8.5,9.5,8.6z"/>
</svg>
