<?xml version="1.0" encoding="utf-8"?>
<!-- Generator: Adobe Illustrator 21.0.0, SVG Export Plug-In . SVG Version: 6.00 Build 0)  -->
<svg version="1.1" id="图层_1" xmlns="http://www.w3.org/2000/svg" xmlns:xlink="http://www.w3.org/1999/xlink" x="0px" y="0px"
	 viewBox="0 0 20 20" style="enable-background:new 0 0 20 20;" xml:space="preserve">
<style type="text/css">
	.st0{fill:#68AEE5;}
	.st1{fill:#FFFFFF;}
	.st2{fill:#5493C3;}
</style>
<title>图标</title>
<polygon class="st0" points="5,4.8 10.5,0.3 15.7,4.8 15.7,15.7 10.5,20.1 5,15.6 "/>
<polygon class="st1" points="6.7,6.5 10.5,3.4 14,6.5 14,13.9 10.5,17 6.7,13.9 "/>
<polygon class="st2" points="10.5,0.3 10.5,3.4 6.7,6.5 5,4.8 "/>
<polygon class="st2" points="10.5,20.1 10.5,17 6.7,13.9 5,15.6 "/>
<polygon class="st2" points="14,6.5 15.7,4.8 15.7,8.3 "/>
<polygon class="st2" points="5,10.1 6.7,8.4 6.7,11.9 "/>
<polygon class="st2" points="15.7,15.7 14,13.9 15.6,12 "/>
</svg>
