<?xml version="1.0" encoding="utf-8"?>
<!-- Generator: Adobe Illustrator 21.0.0, SVG Export Plug-In . SVG Version: 6.00 Build 0)  -->
<svg version="1.1" id="图层_1" xmlns="http://www.w3.org/2000/svg" xmlns:xlink="http://www.w3.org/1999/xlink" x="0px" y="0px"
	 viewBox="0 0 20 20" style="enable-background:new 0 0 20 20;" xml:space="preserve">
<style type="text/css">
	.st0{fill:#001D3F;}
	.st1{fill:#FFFFFF;}
</style>
<title>rfgbsfgbfs</title>
<circle class="st0" cx="10" cy="9.9" r="8"/>
<path class="st1" d="M14.4,10c-0.1,0-0.3,0-0.4,0.1l0,0c-0.1,0-0.1,0-0.2,0c-0.3,0-0.6-0.3-0.6-0.6c0-0.1,0-0.2,0-0.2l0,0
	c0.2-0.6,0-1.2-0.6-1.5c-0.6-0.2-1.2,0-1.5,0.6C11,8.7,11,9,11.2,9.3l0,0c0.1,0.3-0.1,0.7-0.4,0.7c-0.1,0-0.1,0-0.2,0
	c0,0-0.1,0-0.1,0l0,0c-0.6-0.3-1.2,0-1.5,0.5c-0.3,0.6,0,1.2,0.5,1.5c0.6,0.3,1.2,0,1.5-0.5c0.1-0.3,0.1-0.6,0-0.9l0,0
	c-0.1-0.3,0-0.7,0.3-0.8c0.1-0.1,0.3-0.1,0.5,0l0,0c0.2,0.1,0.5,0.1,0.8,0l0,0c0.3-0.1,0.7,0,0.8,0.3c0.1,0.1,0.1,0.3,0,0.5
	c-0.2,0.6,0,1.2,0.6,1.5c0.6,0.2,1.2,0,1.5-0.6c0.2-0.6,0-1.2-0.6-1.5C14.7,10,14.5,10,14.4,10L14.4,10z"/>
<path class="st1" d="M10,5.6c-0.6,0-1.1,0.5-1.1,1.1C8.9,6.8,9,7,9,7.1v0c0,0.1,0,0.1,0,0.2c0,0.3-0.3,0.6-0.6,0.6
	c-0.1,0-0.1,0-0.2,0l0,0C7.7,7.6,7,7.9,6.8,8.5c-0.1,0.3-0.1,0.6,0,0.8l0,0c0.1,0.3-0.1,0.7-0.4,0.8c-0.1,0-0.3,0-0.4,0
	C5.8,10,5.7,10,5.6,10c-0.6,0-1.1,0.5-1.1,1.1c0,0.6,0.5,1.1,1.1,1.1s1.1-0.5,1.1-1.1c0-0.1,0-0.3-0.1-0.4l0,0c0-0.1,0-0.1,0-0.2
	c0-0.3,0.3-0.6,0.6-0.6c0.1,0,0.1,0,0.2,0l0,0c0.6,0.2,1.2,0,1.5-0.6C9,9.1,9,8.7,8.9,8.5l0,0C8.8,8.1,9,7.8,9.3,7.7
	c0.2,0,0.3,0,0.5,0.1c0.1,0,0.2,0,0.3,0c0.6,0,1.1-0.4,1.2-1s-0.4-1.1-1-1.2C10.1,5.6,10.1,5.6,10,5.6L10,5.6z"/>
</svg>
