<?xml version="1.0" encoding="utf-8"?>
<!-- Generator: Adobe Illustrator 21.0.0, SVG Export Plug-In . SVG Version: 6.00 Build 0)  -->
<svg version="1.1" id="图层_1" xmlns="http://www.w3.org/2000/svg" xmlns:xlink="http://www.w3.org/1999/xlink" x="0px" y="0px"
	 viewBox="0 0 20 20" style="enable-background:new 0 0 20 20;" xml:space="preserve">
<style type="text/css">
	.st0{fill:url(#SVGID_1_);stroke:#62D9ED;stroke-miterlimit:10;}
	.st1{fill:#FFFFFF;}
</style>
<title>图标</title>
<linearGradient id="SVGID_1_" gradientUnits="userSpaceOnUse" x1="10.2768" y1="16.3917" x2="10.2903" y2="4.3619" gradientTransform="matrix(1 0 0 -1 0 20.64)">
	<stop  offset="0" style="stop-color:#00C9FF"/>
	<stop  offset="1" style="stop-color:#86C8FF"/>
</linearGradient>
<polygon class="st0" points="10.2,0.6 2.3,5.6 2.3,14.5 10.2,19.3 18.2,14.6 18.3,5.6 "/>
<path class="st1" d="M12.9,5.6v-1l-3.4,0l0,7.8c-1.3,0.4-2,1.7-1.7,3c0.4,1.3,1.7,2,3,1.7c1.3-0.4,2-1.7,1.7-3
	c-0.3-0.9-1.1-1.6-2-1.8V8.2h2.5v-1h-2.5V5.6H12.9z M11.6,14.7c0,0.8-0.7,1.5-1.5,1.5c-0.8,0-1.5-0.7-1.5-1.5c0-0.8,0.7-1.5,1.5-1.5
	C10.9,13.2,11.6,13.9,11.6,14.7L11.6,14.7z"/>
</svg>
