<?xml version="1.0" encoding="utf-8"?>
<!-- Generator: Adobe Illustrator 21.0.0, SVG Export Plug-In . SVG Version: 6.00 Build 0)  -->
<svg version="1.1" id="图层_1" xmlns="http://www.w3.org/2000/svg" xmlns:xlink="http://www.w3.org/1999/xlink" x="0px" y="0px"
	 viewBox="0 0 20 20" style="enable-background:new 0 0 20 20;" xml:space="preserve">
<style type="text/css">
	.st0{fill:#3D3E3C;}
	.st1{fill:#FFFFFF;}
	.st2{fill:#B6B7BA;}
	.st3{fill:#F8F9F7;}
</style>
<title>LTC</title>
<desc>Created with Sketch.</desc>
<g id="Page-1">
	<g id="Artboard" transform="translate(-767.000000, -1610.000000)">
		<g id="LTC" transform="translate(767.000000, 1610.000000)">
			<path id="Fill-491" class="st0" d="M10,2c-4.4,0-8,3.6-8,8s3.6,8,8,8s8-3.6,8-8S14.4,2,10,2"/>
			<path id="Fill-492" class="st1" d="M10,2.7c4,0,7.3,3.3,7.3,7.3c0,4-3.3,7.3-7.3,7.3S2.7,14,2.7,10S6,2.7,10,2.7"/>
			<path id="Fill-493" class="st2" d="M15,7c-0.2-0.3-0.4-0.6-0.6-0.9l-8.2,8.3C6.4,14.7,6.7,14.9,7,15L15,7z"/>
			<path id="Fill-494" class="st2" d="M13.7,5.5c-0.3-0.2-0.6-0.4-0.9-0.6l-8,8c0.2,0.3,0.4,0.6,0.6,0.9L13.7,5.5z"/>
			<path id="Fill-495" class="st2" d="M11.9,4.5c-0.4-0.1-0.8-0.2-1.2-0.3l-6.5,6.5c0,0.4,0.1,0.8,0.3,1.2L11.9,4.5z"/>
			<path id="Fill-496" class="st2" d="M9.4,4.2C8.1,4.3,6.9,4.9,5.9,5.9S4.3,8.1,4.2,9.4L9.4,4.2z"/>
			<path id="Fill-497" class="st2" d="M15.8,9.1c-0.1-0.4-0.2-0.8-0.3-1.2l-7.5,7.5c0.4,0.1,0.8,0.2,1.2,0.3L15.8,9.1z"/>
			<path id="Fill-498" class="st2" d="M15.8,10.4l-5.4,5.4c1.4-0.1,2.7-0.7,3.7-1.7S15.7,11.8,15.8,10.4"/>
			<polygon id="Fill-499" class="st3" points="9.4,12 9.7,9.6 11.9,8 11.9,6.5 9.9,7.9 10.3,5.1 8,5.1 7.4,9.7 5.9,10.8 5.9,12.3 
				7.3,11.3 7,13.9 9.4,13.9 14.7,13.9 14.7,12 			"/>
			<path id="Fill-500" class="st0" d="M7.2,13.7h7.4v-1.5H9.1l0.4-2.7l2.2-1.5V6.9l-2,1.4l0.4-3.1h-2L7.6,9.8l-1.5,1.1v1l1.4-1
				L7.2,13.7z M14.9,14.1H6.8L7,11.7l-1.3,0.9v-1.9l1.5-1.1l0.5-4.7h2.7l-0.4,2.6L12,6.2v1.9L9.9,9.7l-0.3,2.2h5.3V14.1z"/>
		</g>
	</g>
</g>
</svg>
