<?xml version="1.0" encoding="utf-8"?>
<!-- Generator: Adobe Illustrator 21.0.0, SVG Export Plug-In . SVG Version: 6.00 Build 0)  -->
<svg version="1.1" id="图层_1" xmlns="http://www.w3.org/2000/svg" xmlns:xlink="http://www.w3.org/1999/xlink" x="0px" y="0px"
	 viewBox="0 0 20 20" style="enable-background:new 0 0 20 20;" xml:space="preserve">
<style type="text/css">
	.st0{fill:#333232;}
</style>
<title>rfgbsfgbfs</title>
<path class="st0" d="M8.3,16.1l-3.1-1l-0.4,0.1v-10l0.5,0.1l3-1.4L4.9,2.2l0,0v0L2,4.2l0,12.1l2.8,1.3v-0.1L8.3,16.1z M4.9,15.7
	l0.4-0.1l1.8,0.6L4.9,17V15.7z M7.4,4L5.3,5L4.9,4.8V2.7L7.4,4z M4.5,16.9l-2-0.9l0-11.6l2-1.4V16.9z"/>
<path class="st0" d="M15.2,2.2L15.2,2.2L15.2,2.2L11.7,4l3,1.4l0.5-0.1v10l-0.4-0.1l-3.1,1l3.5,1.3v0.1l2.8-1.3l0-12.1L15.2,2.2z
	 M15.1,17L13,16.2l1.8-0.6l0.4,0.1L15.1,17z M14.7,5l-2.1-1l2.5-1.3v2.1L14.7,5z M17.5,16l-2,0.9V3l2,1.4L17.5,16z"/>
</svg>
