<?xml version="1.0" encoding="utf-8"?>
<!-- Generator: Adobe Illustrator 21.0.0, SVG Export Plug-In . SVG Version: 6.00 Build 0)  -->
<svg version="1.1" id="图层_1" xmlns="http://www.w3.org/2000/svg" xmlns:xlink="http://www.w3.org/1999/xlink" x="0px" y="0px"
	 viewBox="0 0 20 20" style="enable-background:new 0 0 20 20;" xml:space="preserve">
<style type="text/css">
	.st0{fill:url(#SVGID_1_);}
</style>
<title>图标</title>
<linearGradient id="SVGID_1_" gradientUnits="userSpaceOnUse" x1="9.9909" y1="19.5582" x2="10.1379" y2="3.5624" gradientTransform="matrix(1 0 0 -1 0 20.64)">
	<stop  offset="0" style="stop-color:#9C0000"/>
	<stop  offset="1" style="stop-color:#FF9C00"/>
</linearGradient>
<path class="st0" d="M18.1,12.4l-0.8-7.8L10,1.4l1.1,7.9l-1.1,0.9L8.7,9.3l1.2-7.9l-7,3.4l-0.8,7.5l5.1,4.4l2.7-1.1l2.9,1.4
	L18.1,12.4z M7.3,16.1l-4.6-4.1l0.8-7l5.9-2.8L8.2,9.5l1.4,1.1l-3.7,3.1l3.4,1.6L7.3,16.1z M10,10.9l3.4,2.6L9.9,15l-3.1-1.5
	L10,10.9z M10.5,15.3l3.8-1.6l-3.9-3.1l1.3-1l-1-7.3L16.8,5l0.8,7.3l-4.9,4.2L10.5,15.3z"/>
</svg>
