<?xml version="1.0" encoding="utf-8"?>
<!-- Generator: Adobe Illustrator 21.0.0, SVG Export Plug-In . SVG Version: 6.00 Build 0)  -->
<svg version="1.1" id="图层_1" xmlns="http://www.w3.org/2000/svg" xmlns:xlink="http://www.w3.org/1999/xlink" x="0px" y="0px"
	 viewBox="0 0 20 20" style="enable-background:new 0 0 20 20;" xml:space="preserve">
<style type="text/css">
	.st0{fill:#0CA3FA;}
	.st1{fill:#0DA4FA;}
	.st2{fill:#FEFEFE;}
	.st3{fill:#F2F9FE;}
	.st4{fill:#E7F5FE;}
</style>
<title>图标</title>
<g>
	<path class="st0" d="M4.1,12.6c-0.5-0.1-0.4,0.5-0.7,0.6C1.2,9.8,2.7,4.6,6.6,2.5c3.8-2.1,9-0.6,10.7,3.1c-3-0.9-5.6,0.3-8.1,1.7
		C8.8,7.6,8.4,7.8,8,8.1C7.9,8.2,7.8,8.5,7.6,8.5c-0.4,0-0.2,0.2-0.2,0.4C7.3,9.1,7.1,9.2,6.9,9.3C6.7,9.4,6.5,9.5,6.3,9.5
		c-0.7-0.1-1,0.3-0.9,1c0,0.3-0.2,0.5-0.3,0.8C4.7,11.7,4.5,12.3,4.1,12.6z"/>
	<path class="st0" d="M6.9,9.1l0.6-0.3c0.2-0.2,0.4-0.5,0.7-0.4c1.2-0.6,2.3-1.2,3.7-1.3C12.7,7,13.5,7,14,7.8
		c0.5,0.8,0.3,1.6-0.2,2.3c-1.8,2.9-4.4,4.6-7.8,5.1c-1.7,0.2-2.5-0.9-2-2.5c0.1-0.5,0.3-1,0.7-1.4c0.1-0.3,0.3-0.5,0.6-0.7
		c0.5,0,1-0.1,1-0.8C6.4,9.4,6.7,9.3,6.9,9.1z"/>
	<path class="st1" d="M7.5,16.9c4.8-1.4,8.4-3.9,10.6-8.2c0.7,1.3-0.2,4.3-1.7,6C14.3,17.2,10.9,18.1,7.5,16.9z"/>
	<path class="st2" d="M8.1,8.4C7.9,8.6,7.7,8.7,7.4,8.8C7.3,8.4,7.7,8.3,8,8.1L8.1,8.4z"/>
	<path class="st3" d="M6.9,9.1c0,0.3-0.2,0.4-0.2,0.7c0,0.8-0.4,1-1.2,0.8c-0.1,0-0.1-0.1-0.1-0.2C5,9.5,5.2,9.2,6.2,9.3
		C6.4,9.3,6.6,9.2,6.9,9.1z"/>
	<path class="st4" d="M5.2,10.5l0.1,0.2l-0.6,0.6C4.8,10.9,5.2,10.8,5.2,10.5z"/>
</g>
</svg>
