<?xml version="1.0" encoding="utf-8"?>
<!-- Generator: Adobe Illustrator 21.0.0, SVG Export Plug-In . SVG Version: 6.00 Build 0)  -->
<svg version="1.1" id="图层_1" xmlns="http://www.w3.org/2000/svg" xmlns:xlink="http://www.w3.org/1999/xlink" x="0px" y="0px"
	 viewBox="0 0 20 20" style="enable-background:new 0 0 20 20;" xml:space="preserve">
<style type="text/css">
	.st0{fill:#005EB0;}
</style>
<title>图标</title>
<path class="st0" d="M14.2,7l-3.7,3.7c0,0-0.3,0.3-1.1-0.5S8.8,9,8.8,9l3.7-3.7C10,3.9,6.8,4.8,5.4,7.2s-0.6,5.7,1.9,7.1
	c2.5,1.5,5.7,0.6,7.1-1.9C15.4,10.8,15.3,8.6,14.2,7L14.2,7z"/>
<path class="st0" d="M9.9,17.1L9.9,17.1L9.9,17.1L9.9,17.1c-4,0-7.2-3.3-7.2-7.3c0-3.9,3.2-7.1,7.1-7.1h0l0,0c0.2,0,0.3-0.1,0.3-0.3
	c0-0.2-0.1-0.3-0.3-0.3l0,0h0C5.5,2,2,5.5,2,9.9s3.5,7.9,7.9,7.9h0l0,0c0.2,0,0.3-0.1,0.3-0.3S10.1,17.1,9.9,17.1L9.9,17.1z"/>
<circle class="st0" cx="12.1" cy="2.6" r="0.5"/>
<circle class="st0" cx="14.2" cy="3.7" r="0.5"/>
<circle class="st0" cx="15.9" cy="5.3" r="0.5"/>
<circle class="st0" cx="16.9" cy="7.4" r="0.5"/>
<circle class="st0" cx="17.5" cy="9.6" r="0.5"/>
<circle class="st0" cx="16.9" cy="12.3" r="0.5"/>
<circle class="st0" cx="15.8" cy="14.4" r="0.5"/>
<circle class="st0" cx="14.2" cy="16" r="0.5"/>
<circle class="st0" cx="12.1" cy="17.1" r="0.5"/>
</svg>
