<?xml version="1.0" encoding="utf-8"?>
<!-- Generator: Adobe Illustrator 21.0.0, SVG Export Plug-In . SVG Version: 6.00 Build 0)  -->
<svg version="1.1" id="图层_1" xmlns="http://www.w3.org/2000/svg" xmlns:xlink="http://www.w3.org/1999/xlink" x="0px" y="0px"
	 viewBox="0 0 20 20" style="enable-background:new 0 0 20 20;" xml:space="preserve">
<style type="text/css">
	.st0{fill:#7A5EB7;}
	.st1{fill:#FFFFFF;}
</style>
<title>图标</title>
<g id="Layer_1">
	<g id="_317960760">
		<circle class="st0" cx="9.6" cy="9.9" r="8"/>
		<path class="st1" d="M13.6,8.6c-1.1-1.2-2.7-2.7-2.9-3.4C10.6,4.4,11,3.7,11,3.7c-0.7,0-1.2,0.4-1.4,0.8C9.4,4,9,3.7,8.2,3.7
			c0,0,0.5,0.7,0.3,1.5C8.4,5.9,6.7,7.4,5.6,8.6c-3,3.2-0.4,7.6,4,7.6S16.6,11.8,13.6,8.6z M9.6,15.1c-1.8,0-3.8-0.9-4.2-2.9
			c-0.5-2.2,1.7-3.6,3-4.9c0.1,0.1,0.1,0.1,0.2,0.2c0.1,0.1,0.2,0.2,0.3,0.3C8.9,7.9,8.8,8,8.7,8.1c-1.1,1-2.9,2.3-2.5,4
			c0.4,1.5,2.1,2.3,3.5,2.3s3.1-0.7,3.5-2.3c0.4-1.7-1.5-2.9-2.5-4c-0.5-0.5-1-1-1.5-1.5C9.3,6.4,9.5,6.2,9.6,6l0,0l0,0
			c1.4,2,4.9,3.6,4.2,6.3C13.4,14.2,11.4,15.1,9.6,15.1L9.6,15.1z M11,10.8c-0.1-0.1-0.2-0.2-0.3-0.3l0.5-0.6
			c0.8,0.8,1.5,1.8,0.4,2.8c-0.5,0.4-1.3,0.6-2,0.6s-1.5-0.2-2-0.6c-1.2-1-0.4-2,0.4-2.8l0.5,0.6c-0.1,0.1-0.2,0.2-0.3,0.3
			c-0.9,1.1,0.4,1.7,1.3,1.7C10.6,12.5,11.8,11.9,11,10.8L11,10.8z M10.3,11.5c-0.4,0.2-0.9,0.2-1.3,0L9.3,10C8.9,9.8,8.8,9.3,9,8.9
			c0.2-0.4,0.7-0.5,1-0.3c0.4,0.2,0.5,0.7,0.3,1C10.2,9.8,10.1,9.9,10,10L10.3,11.5z"/>
	</g>
</g>
</svg>
