<?xml version="1.0" encoding="utf-8"?>
<!-- Generator: Adobe Illustrator 21.0.0, SVG Export Plug-In . SVG Version: 6.00 Build 0)  -->
<svg version="1.1" id="图层_1" xmlns="http://www.w3.org/2000/svg" xmlns:xlink="http://www.w3.org/1999/xlink" x="0px" y="0px"
	 viewBox="0 0 20 20" style="enable-background:new 0 0 20 20;" xml:space="preserve">
<style type="text/css">
	.st0{fill:#26A9E0;}
	.st1{fill:#FFFFFF;}
</style>
<title>rfgbsfgbfs</title>
<g>
	<path class="st0" d="M18.5,10.3c0,2.1-0.7,3.9-2.1,5.5c-1,1.1-2.3,1.9-3.7,2.4c-1.9,0.6-4,0.4-5.8-0.5c0,0-0.1,0-0.2,0
		C6.2,18,5.6,18.2,5,18.3c-0.5,0.1-0.9,0.2-1.4,0.2c-0.5,0-0.9-0.3-1.1-0.7c-0.2-0.5-0.1-1,0.2-1.4c0.2-0.2,0.4-0.5,0.5-0.8
		c0.1-0.3,0.2-0.5,0.3-0.8c0,0,0-0.1,0-0.1c-0.6-1-1-2-1.1-3.1c-0.2-1.7,0-3.4,0.8-4.9C4.1,5,5.4,3.7,7,2.9c0.8-0.4,1.6-0.6,2.4-0.7
		c0.5-0.1,1.1-0.1,1.7,0c1.1,0.1,2.1,0.4,3.1,0.9c1.2,0.7,2.3,1.6,3,2.8c0.6,1,1.1,2.2,1.2,3.4C18.4,9.6,18.5,10,18.5,10.3z
		 M5.6,15.7C5.7,15.7,5.7,15.7,5.6,15.7c0.6-0.2,1-0.4,1.4-0.7c0.1-0.1,0.2-0.1,0.3-0.1c0.2,0,0.4,0,0.5,0.1
		c0.3,0.2,0.5,0.3,0.8,0.4c0.8,0.3,1.8,0.4,2.7,0.3c1.2-0.2,2.3-0.8,3.1-1.7c1.1-1.3,1.6-3.1,1.2-4.8c-0.2-1.1-0.8-2-1.6-2.8
		C12.8,5.2,11.3,4.8,9.7,5C8.5,5.2,7.3,5.8,6.5,6.8c-1,1.2-1.4,2.5-1.3,4c0.1,0.9,0.4,1.8,0.9,2.6c0,0.1,0.1,0.1,0.1,0.2
		c0.1,0.2,0.1,0.4,0,0.5c-0.1,0.5-0.3,1.1-0.6,1.5C5.6,15.6,5.6,15.7,5.6,15.7z"/>
	<path class="st1" d="M5.6,15.7c0,0,0-0.1,0-0.1c0.2-0.5,0.4-1,0.6-1.6c0.1-0.2,0-0.4,0-0.5c0-0.1-0.1-0.1-0.1-0.2
		c-0.5-0.8-0.8-1.6-0.9-2.6c-0.1-1.5,0.3-2.9,1.3-4c0.8-1,1.9-1.6,3.2-1.8c1.6-0.2,3.1,0.2,4.3,1.3c0.8,0.7,1.4,1.7,1.6,2.8
		c0.4,1.7-0.1,3.5-1.2,4.8c-0.8,0.9-1.9,1.6-3.1,1.7c-0.9,0.1-1.8,0.1-2.6-0.3c-0.3-0.1-0.6-0.2-0.8-0.4c-0.2-0.1-0.3-0.1-0.5-0.1
		C7.2,14.9,7.1,15,7,15c-0.4,0.3-0.8,0.5-1.3,0.7C5.7,15.7,5.7,15.7,5.6,15.7z M8.5,13.5C8.5,13.5,8.5,13.5,8.5,13.5l1.3-0.7
		c0.2-0.1,0.4-0.2,0.6-0.3c0,0,0.1,0,0.1,0c0,0,0,0,0.1,0l1.8,1c0,0,0,0,0.1,0c0,0,0,0,0-0.1c-0.1-0.3-0.1-0.6-0.2-0.9
		c-0.1-0.4-0.1-0.8-0.2-1.2c0,0,0-0.1,0-0.1c0,0,0.1-0.1,0.1-0.1l1.4-1.4c0,0,0.1,0,0.1-0.1c0,0,0,0-0.1,0c-0.7-0.1-1.4-0.2-2-0.3
		c-0.1,0-0.1,0-0.1-0.1c-0.3-0.6-0.6-1.2-0.9-1.9c0,0,0-0.1-0.1-0.1c0,0-0.1,0.1-0.1,0.1C10.1,8,9.8,8.6,9.5,9.2
		c0,0.1-0.1,0.1-0.2,0.1c-0.2,0-0.3,0-0.5,0.1L7.3,9.6c0,0,0,0-0.1,0c0,0,0,0,0.1,0.1c0.5,0.5,1,1,1.4,1.4c0.1,0.1,0.1,0.1,0.1,0.2
		C8.7,12,8.6,12.7,8.5,13.5C8.5,13.4,8.5,13.5,8.5,13.5L8.5,13.5z"/>
	<path class="st0" d="M8.5,13.5C8.5,13.5,8.5,13.4,8.5,13.5c0.1-0.8,0.2-1.4,0.3-2.1c0-0.2,0-0.1-0.1-0.2c-0.5-0.5-1-1-1.4-1.4
		c0,0,0,0-0.1-0.1c0,0,0,0,0.1,0l1.6-0.2c0.2,0,0.3-0.1,0.5-0.1c0.1,0,0.1-0.1,0.2-0.1c0.3-0.6,0.6-1.2,0.9-1.8c0,0,0-0.1,0.1-0.1
		c0,0,0,0.1,0.1,0.1c0.3,0.6,0.6,1.2,0.9,1.9c0,0.1,0.1,0.1,0.1,0.1c0.7,0.1,1.4,0.2,2,0.3c0,0,0.1,0,0.1,0c0,0,0,0.1-0.1,0.1
		l-1.4,1.4c0,0-0.1,0.1-0.1,0.1c0,0,0,0.1,0,0.1c0.1,0.4,0.1,0.8,0.2,1.2c0.1,0.3,0.1,0.6,0.2,0.9c0,0,0,0,0,0.1c0,0-0.1,0-0.1,0
		l-1.8-1c0,0,0,0-0.1,0c0,0-0.1,0-0.1,0c-0.2,0.1-0.4,0.2-0.6,0.3L8.5,13.5C8.5,13.5,8.5,13.5,8.5,13.5z"/>
</g>
</svg>
