<?xml version="1.0" encoding="utf-8"?>
<!-- Generator: Adobe Illustrator 21.0.0, SVG Export Plug-In . SVG Version: 6.00 Build 0)  -->
<svg version="1.1" id="图层_1" xmlns="http://www.w3.org/2000/svg" xmlns:xlink="http://www.w3.org/1999/xlink" x="0px" y="0px"
	 viewBox="0 0 20 20" style="enable-background:new 0 0 20 20;" xml:space="preserve">
<style type="text/css">
	.st0{fill:#D1BFDC;}
	.st1{fill:#E43C54;}
	.st2{fill:#3EBA8F;}
	.st3{fill:#F39252;}
	.st4{fill:#8252A0;}
	.st5{fill:#3E98D2;}
</style>
<title>图标</title>
<path class="st0" d="M6.7,1.2C6.7,1.2,6.7,1.2,6.7,1.2L6.7,1.2C6.7,1.2,6.7,1.2,6.7,1.2z"/>
<path class="st1" d="M13.8,2.5c0,0.4-0.2,0.7-0.5,1c-1.2,1-2.5,1.9-3.7,2.9C8.8,6.9,8,7.6,7.1,8.2C6.6,8.6,5.8,8.5,5.4,8
	C5.3,7.8,5.2,7.6,5.2,7.4C5.1,7,5.3,6.5,5.7,6.3c0.9-0.7,1.8-1.4,2.7-2.1c1.1-0.9,2.3-1.8,3.4-2.6c0.7-0.6,1.8-0.1,1.9,0.8
	C13.8,2.4,13.8,2.4,13.8,2.5z"/>
<path class="st2" d="M13.8,12.3c0,0.4-0.2,0.7-0.5,1l-4.4,3.3C8.3,17,7.7,17.5,7.2,18c-0.5,0.4-1.3,0.3-1.7-0.2
	c-0.1-0.1-0.2-0.3-0.2-0.5c-0.1-0.5,0.1-0.9,0.5-1.2c1.1-0.9,2.3-1.8,3.4-2.6c0.9-0.7,1.8-1.4,2.7-2.1c0.5-0.4,1.3-0.3,1.7,0.2
	c0.1,0.1,0.2,0.3,0.2,0.5C13.8,12.1,13.8,12.2,13.8,12.3z"/>
<path class="st3" d="M12.7,6.1c0.5,0,1,0.4,1.1,1c0.1,0.5-0.1,0.9-0.5,1.2c-1.3,1-2.6,2-4,3c-0.7,0.6-1.5,1.1-2.2,1.7
	c-0.5,0.4-1.3,0.3-1.7-0.2c-0.1-0.1-0.2-0.3-0.2-0.5c-0.1-0.5,0.1-1,0.4-1.2c1.1-0.8,2.2-1.7,3.2-2.5c1-0.7,2-1.5,2.9-2.2
	C12.1,6.2,12.3,6.1,12.7,6.1z"/>
<path class="st4" d="M6.4,0c0.9,0.1,1.4,0.9,1.3,1.8C7.6,2.6,6.8,3.2,5.9,3.1C5.1,3,4.5,2.2,4.6,1.3C4.7,0.6,5.3,0.1,5.9,0
	c0,0,0,0,0,0L6.4,0C6.3,0,6.4,0,6.4,0z"/>
<path class="st5" d="M14.6,18.2c0,0.9-0.7,1.6-1.6,1.6c-0.9,0-1.6-0.7-1.6-1.6c0-0.9,0.7-1.6,1.6-1.6c0,0,0,0,0,0
	C13.9,16.7,14.6,17.4,14.6,18.2z"/>
</svg>
