<?xml version="1.0" encoding="utf-8"?>
<!-- Generator: Adobe Illustrator 21.0.0, SVG Export Plug-In . SVG Version: 6.00 Build 0)  -->
<svg version="1.1" id="图层_1" xmlns="http://www.w3.org/2000/svg" xmlns:xlink="http://www.w3.org/1999/xlink" x="0px" y="0px"
	 viewBox="0 0 20 20" style="enable-background:new 0 0 20 20;" xml:space="preserve">
<style type="text/css">
	.st0{fill:#3E96E5;}
	.st1{fill:#EAB827;}
</style>
<title>图标</title>
<path class="st0" d="M17.3,6.5c-1.7-4.1-6.4-6-10.5-4.2s-6,6.4-4.2,10.5c0.1,0.1,0.1,0.3,0.2,0.4c0.5,1.1,1.3,2,2.2,2.7L5.1,16
	l0-0.1l0.9-1.1H5.8l-0.7,0.9C4.2,14.9,3.5,14,2.9,13C1,9.2,2.6,4.5,6.5,2.6S15,2.3,16.9,6.1c0.1,0.1,0.1,0.3,0.2,0.4
	c1.7,4-0.2,8.5-4.1,10.2c-2.4,1-5.2,0.8-7.4-0.7l-0.1,0.2c3.7,2.5,8.6,1.5,11.1-2.2C18,11.8,18.3,8.9,17.3,6.5z"/>
<path class="st0" d="M11.1,8.5c-0.4,0.9-1.6,1.4-2.5,0.9C7.6,9,7.2,7.9,7.6,7c0.3-0.7,1-1.1,1.7-1.1v-1c-1.6,0-2.9,1.3-2.9,2.9
	c0,1.5,1.1,2.7,2.6,2.9l-2.9,3.8h1.3l3.1-4c0.2-0.1,0.4-0.2,0.5-0.3L11.1,8.5z"/>
<polygon class="st1" points="13.7,4.8 10.3,4.8 10.3,5.9 11.4,5.9 11.4,14.4 12.4,14.4 12.4,5.9 12.8,5.9 "/>
<rect x="9.4" y="4.8" class="st0" width="0.6" height="1"/>
</svg>
