<?xml version="1.0" encoding="utf-8"?>
<!-- Generator: Adobe Illustrator 21.0.0, SVG Export Plug-In . SVG Version: 6.00 Build 0)  -->
<svg version="1.1" id="图层_1" xmlns="http://www.w3.org/2000/svg" xmlns:xlink="http://www.w3.org/1999/xlink" x="0px" y="0px"
	 viewBox="0 0 20 20" style="enable-background:new 0 0 20 20;" xml:space="preserve">
<style type="text/css">
	.st0{stroke:#FFFFFF;stroke-width:2;}
	.st1{fill:#7EC307;}
	.st2{fill:#FFFFFF;}
</style>
<title>图标</title>
<g id="Page-1">
	<g id="_001">
		<g id="Group-3-Copy">
			<g id="Group">
				<circle id="Oval" class="st0" cx="10.9" cy="9.3" r="8"/>
				<circle id="Oval-Copy" class="st1" cx="10.9" cy="9.3" r="6.7"/>
				<path id="Combined-Shape" d="M8.4,9.3h2.1c0.1,0,0.2,0.1,0.2,0.2v2.1c0,0.1-0.1,0.2-0.2,0.2H8.4c-0.1,0-0.2-0.1-0.2-0.2V9.5
					C8.2,9.4,8.3,9.3,8.4,9.3z M8.4,6.5h2.1c0.1,0,0.2,0.1,0.2,0.2v2.1c0,0.1-0.1,0.2-0.2,0.2H8.4c-0.1,0-0.2-0.1-0.2-0.2V6.7
					C8.2,6.6,8.3,6.5,8.4,6.5C8.4,6.5,8.4,6.5,8.4,6.5L8.4,6.5z M5.5,9.3h2.1c0.1,0,0.2,0.1,0.2,0.2v2.1c0,0.1-0.1,0.2-0.2,0.2H5.5
					c-0.1,0-0.2-0.1-0.2-0.2V9.5C5.4,9.4,5.4,9.3,5.5,9.3z M5.5,6.5h2.1c0.1,0,0.2,0.1,0.2,0.2v2.1c0,0.1-0.1,0.2-0.2,0.2H5.5
					c-0.1,0-0.2-0.1-0.2-0.2V6.7C5.4,6.6,5.4,6.5,5.5,6.5C5.5,6.5,5.5,6.5,5.5,6.5z M14.1,9.3h2.1c0.1,0,0.2,0.1,0.2,0.2v2.1
					c0,0.1-0.1,0.2-0.2,0.2h-2.1c-0.1,0-0.2-0.1-0.2-0.2V9.5C13.9,9.4,14,9.3,14.1,9.3z M14.1,6.5h2.1c0.1,0,0.2,0.1,0.2,0.2v2.1
					c0,0.1-0.1,0.2-0.2,0.2h-2.1c-0.1,0-0.2-0.1-0.2-0.2V6.7C13.9,6.6,14,6.5,14.1,6.5C14.1,6.5,14.1,6.5,14.1,6.5L14.1,6.5z
					 M14.2,4l1.8,1.8c0.1,0.1,0.1,0.2,0,0.3c0,0-0.1,0.1-0.1,0.1h-1.8c-0.1,0-0.2-0.1-0.2-0.2V4.1c0-0.1,0.1-0.2,0.2-0.2
					C14.2,3.9,14.2,3.9,14.2,4L14.2,4z M7.5,3.9c0.1-0.1,0.2-0.1,0.3,0c0,0,0.1,0.1,0.1,0.1v1.8C7.8,5.9,7.7,6,7.6,6H5.8
					C5.7,6,5.6,5.9,5.6,5.8c0-0.1,0-0.1,0.1-0.1L7.5,3.9z M14.2,14.3c-0.1,0.1-0.2,0.1-0.3,0c0,0-0.1-0.1-0.1-0.1v-1.8
					c0-0.1,0.1-0.2,0.2-0.2h1.8c0.1,0,0.2,0.1,0.2,0.2c0,0.1,0,0.1-0.1,0.1L14.2,14.3z M7.4,14.3l-1.8-1.8c-0.1-0.1-0.1-0.2,0-0.3
					c0,0,0.1-0.1,0.1-0.1h1.8c0.1,0,0.2,0.1,0.2,0.2v1.8c0,0.1-0.1,0.2-0.2,0.2C7.5,14.4,7.5,14.4,7.4,14.3L7.4,14.3z M8.4,3.6h2.1
					c0.1,0,0.2,0.1,0.2,0.2v2.1c0,0.1-0.1,0.2-0.2,0.2H8.4C8.3,6.1,8.2,6,8.2,5.9V3.8C8.2,3.7,8.3,3.6,8.4,3.6z M11.3,3.6h2.1
					c0.1,0,0.2,0.1,0.2,0.2v2.1c0,0.1-0.1,0.2-0.2,0.2h-2.1c-0.1,0-0.2-0.1-0.2-0.2V3.8C11.1,3.7,11.2,3.6,11.3,3.6z M11.3,6.5h2.1
					c0.1,0,0.2,0.1,0.2,0.2v2.1c0,0.1-0.1,0.2-0.2,0.2h-2.1c-0.1,0-0.2-0.1-0.2-0.2V6.7C11.1,6.6,11.1,6.5,11.3,6.5
					C11.3,6.5,11.3,6.5,11.3,6.5L11.3,6.5z M11.3,9.3h2.1c0.1,0,0.2,0.1,0.2,0.2v2.1c0,0.1-0.1,0.2-0.2,0.2h-2.1
					c-0.1,0-0.2-0.1-0.2-0.2V9.5C11.1,9.4,11.2,9.3,11.3,9.3L11.3,9.3z M8.4,12.2h2.1c0.1,0,0.2,0.1,0.2,0.2v2.1
					c0,0.1-0.1,0.2-0.2,0.2H8.4c-0.1,0-0.2-0.1-0.2-0.2v-2.1C8.2,12.3,8.3,12.2,8.4,12.2L8.4,12.2z M11.3,12.2h2.1
					c0.1,0,0.2,0.1,0.2,0.2v2.1c0,0.1-0.1,0.2-0.2,0.2h-2.1c-0.1,0-0.2-0.1-0.2-0.2v-2.1C11.1,12.3,11.2,12.2,11.3,12.2L11.3,12.2z"
					/>
				<path id="SOLAREUM" class="st2" d="M8.1,2.9l0-0.1c0.1,0,0.1,0,0.2,0c0.1,0,0.1-0.1,0.1-0.1c0,0-0.1-0.1-0.2,0
					C8,2.6,8,2.6,7.9,2.5C7.8,2.4,7.9,2.3,8,2.2c0,0,0.1,0,0.2-0.1l0,0.1c0,0-0.1,0-0.1,0C8,2.3,8,2.4,8,2.4c0,0,0.1,0,0.2,0
					c0.1,0,0.2,0,0.3,0.1c0.1,0.1,0,0.2-0.1,0.3C8.3,2.9,8.2,2.9,8.1,2.9z M8.9,1.9C9.1,1.9,9.2,2,9.3,2.2c0.1,0.3,0,0.4-0.2,0.5
					c-0.2,0-0.3-0.1-0.4-0.3C8.6,2.2,8.7,2,8.9,1.9L8.9,1.9z M8.9,2c-0.1,0-0.1,0.2-0.1,0.3c0,0.1,0.1,0.2,0.2,0.2
					c0.1,0,0.1-0.2,0.1-0.3C9.1,2.1,9,2,8.9,2L8.9,2z M9.8,2.4L10,2.3l0,0.1L9.7,2.5L9.5,1.8l0.1,0L9.8,2.4z M10.4,1.7h0.2l0.2,0.7
					h-0.2l-0.1-0.2h-0.2l-0.1,0.2h-0.1L10.4,1.7z M10.5,1.9l0,0.2h0.2L10.5,1.9c0.1,0,0-0.1,0-0.2l0,0C10.5,1.8,10.5,1.9,10.5,1.9
					L10.5,1.9z M11.1,2.4V1.7c0.1,0,0.1,0,0.2,0c0.1,0,0.3,0,0.3,0.2c0,0.1-0.1,0.2-0.1,0.2l0,0c0.1,0,0.1,0.1,0.1,0.1
					c0,0.1,0,0.1,0.1,0.2h-0.1c0-0.1,0-0.1,0-0.2c0-0.1,0-0.1-0.1-0.1h0v0.3L11.1,2.4z M11.2,1.8V2h0.1c0.1,0,0.1,0,0.1-0.1
					c0,0,0,0,0,0C11.4,1.8,11.4,1.8,11.2,1.8C11.3,1.8,11.3,1.8,11.2,1.8C11.3,1.8,11.2,1.8,11.2,1.8L11.2,1.8z M11.9,2.3l0.3,0.1
					l0,0.1l-0.4-0.1L12,1.7l0.4,0.1l0,0.1l-0.2-0.1L12,2l0.2,0.1l0,0.1L12,2.1L11.9,2.3z M13.1,2l0.1,0l-0.1,0.4
					c-0.1,0.2-0.2,0.3-0.3,0.2c-0.2,0-0.2-0.2-0.2-0.4l0.1-0.4l0.1,0l-0.1,0.4c0,0.1,0,0.2,0.1,0.2c0.1,0,0.1,0,0.2-0.1L13.1,2z
					 M14,2.4l0.2,0.1l-0.3,0.7l-0.1-0.1l0.1-0.3c0-0.1,0.1-0.2,0.1-0.3l0,0c-0.1,0.1-0.1,0.1-0.2,0.2L13.6,3l-0.1-0.1l0.1-0.3
					c0-0.1,0.1-0.2,0.1-0.3l0,0c0,0.1-0.1,0.2-0.2,0.3l-0.2,0.2l-0.1-0.1l0.4-0.6l0.2,0.1l-0.1,0.3c0,0.1,0,0.2-0.1,0.3l0,0
					c0.1-0.1,0.1-0.1,0.2-0.2L14,2.4z"/>
				<path id="SLRM" class="st2" d="M9.3,16.9l0.1-0.1c0,0,0.1,0.1,0.1,0.1c0.1,0,0.1,0,0.1-0.1c0-0.1,0-0.1-0.1-0.1
					c-0.1-0.1-0.1-0.2-0.1-0.3c0-0.1,0.1-0.2,0.3-0.1c0.1,0,0.1,0,0.1,0.1l-0.1,0.1c0,0-0.1-0.1-0.1-0.1c-0.1,0-0.1,0-0.1,0.1
					c0,0,0,0.1,0.1,0.1c0.1,0.1,0.1,0.2,0.1,0.3c0,0.1-0.2,0.2-0.3,0.1C9.4,16.9,9.4,16.9,9.3,16.9z M10.3,16.9h0.3V17h-0.4v-0.7
					h0.1L10.3,16.9z M10.8,17v-0.7c0.1,0,0.1,0,0.2,0c0.1,0,0.3,0,0.3,0.2c0,0.1-0.1,0.2-0.1,0.2l0,0c0.1,0,0.1,0.1,0.1,0.1
					c0,0.1,0,0.1,0.1,0.2h-0.1c0-0.1,0-0.1,0-0.2c0-0.1,0-0.1-0.1-0.1h0V17L10.8,17z M11,16.4v0.2H11c0.1,0,0.1,0,0.1-0.1
					c0,0,0,0,0,0C11.2,16.4,11.1,16.4,11,16.4C11.1,16.4,11,16.4,11,16.4C11,16.4,11,16.4,11,16.4L11,16.4z M12,16.2l0.2,0l0.2,0.7
					l-0.1,0l-0.1-0.3c0-0.1-0.1-0.2-0.1-0.3l0,0c0,0.1,0,0.2,0,0.3l0,0.3L12,17l-0.2-0.3c0-0.1-0.1-0.2-0.1-0.3l0,0
					c0,0.1,0,0.2,0.1,0.3l0.1,0.3l-0.1,0l-0.1-0.7l0.2,0l0.2,0.2c0,0.1,0.1,0.2,0.1,0.2l0,0c0-0.1,0-0.2,0-0.3L12,16.2z"/>
			</g>
		</g>
	</g>
</g>
</svg>
