<?xml version="1.0" encoding="utf-8"?>
<!-- Generator: Adobe Illustrator 21.0.0, SVG Export Plug-In . SVG Version: 6.00 Build 0)  -->
<svg version="1.1" id="图层_1" xmlns="http://www.w3.org/2000/svg" xmlns:xlink="http://www.w3.org/1999/xlink" x="0px" y="0px"
	 viewBox="0 0 20 20" style="enable-background:new 0 0 20 20;" xml:space="preserve">
<style type="text/css">
	.st0{fill:#5D71EA;}
</style>
<title>图标</title>
<path class="st0" d="M10.1,2.1c-4.4,0-8,3.6-8,8s3.6,8,8,8s8-3.6,8-8l0,0C18.1,5.7,14.5,2.1,10.1,2.1z M13.1,10.5c0,0-0.5,1-0.8,1.5
	c-0.3,0.4-0.9,1.1-0.9,1.1c-0.4,0.4-1,0.9-1.4,1.1c-0.3,0.2-1,0.4-2.1,0.4c-0.1,0-0.1,0-0.2,0c-1-0.1-1.8-1-1.8-2.1
	c0-1.1,0.9-2,1.9-2.1l0,0l5.1,0C13.1,10.4,13.1,10.4,13.1,10.5z M12.3,9.8L12.3,9.8l-5.1,0C7.1,9.8,7,9.8,7.1,9.7c0,0,0.5-1,0.8-1.5
	c0.3-0.4,0.9-1.1,0.9-1.1c0.4-0.4,1-0.9,1.4-1.1c0.3-0.2,1-0.4,2.1-0.4c0.1,0,0.1,0,0.2,0c1,0.1,1.8,1,1.8,2.1
	C14.2,8.9,13.3,9.8,12.3,9.8L12.3,9.8z"/>
</svg>
