<?xml version="1.0" encoding="utf-8"?>
<!-- Generator: Adobe Illustrator 21.0.0, SVG Export Plug-In . SVG Version: 6.00 Build 0)  -->
<svg version="1.1" id="图层_1" xmlns="http://www.w3.org/2000/svg" xmlns:xlink="http://www.w3.org/1999/xlink" x="0px" y="0px"
	 viewBox="0 0 20 20" style="enable-background:new 0 0 20 20;" xml:space="preserve">
<style type="text/css">
	.st0{fill:#FFFFFF;}
	.st1{fill:#2683FC;}
</style>
<title>图标</title>
<path class="st0" d="M17,12.6c-0.1,0-0.2,0-0.3,0v-1h-2V8.9h1.9V7.6c0.1,0,0.3,0.1,0.4,0.1c0.7,0,1.3-0.6,1.3-1.3
	c0-0.7-0.6-1.3-1.3-1.3c-0.7,0-1.3,0.6-1.3,1.2h-1V4.7H11c0.5-0.3,0.8-0.9,0.8-1.7c0-1-0.6-1.9-1.4-1.9C9.7,1.1,9,2,9,3
	c0,0.8,0.3,1.4,0.8,1.7H6.4v1.6H5.2c0,0,0,0,0,0c0-0.7-0.6-1.3-1.3-1.3S2.6,5.5,2.6,6.2c0,0.7,0.6,1.3,1.3,1.3c0,0,0,0,0,0
	c0.1,0,0.2,0,0.3,0v1.4h2.2v2.6H4.4v1.2c-0.2-0.1-0.3-0.1-0.5-0.1c-0.7,0-1.3,0.6-1.3,1.3c0,0.7,0.6,1.3,1.3,1.3
	c0.6,0,1.2-0.5,1.3-1.1h1.1v0.7h2.4v2h0.7c-0.2,0.2-0.4,0.6-0.4,0.9c0,0.7,0.6,1.3,1.4,1.3c0.7,0,1.3-0.6,1.3-1.3
	c0-0.3-0.1-0.7-0.4-0.9h0.9v-2h2.4v-0.6h1.1c0.2,0.7,0.9,1.1,1.6,1c0.7-0.2,1.1-0.9,1-1.6C18.2,13,17.7,12.6,17,12.6z"/>
<g id="Group">
	<path id="Shape" class="st1" d="M18.4,6.3c0,0.6-0.3,1-0.7,1.3c-0.1,0-0.1,0.1-0.1,0.2c0,1.5,0,3.1,0,4.6c0,0.1,0,0.2,0.1,0.2
		c0.7,0.4,1,1.3,0.6,2c-0.2,0.4-0.6,0.6-1,0.7c-0.3,0.1-0.7,0-1-0.2c-0.1-0.1-0.2-0.1-0.2,0c-1.3,0.8-2.6,1.5-4,2.3
		c-0.1,0-0.1,0.1-0.1,0.2c0,0.7-0.6,1.4-1.3,1.5c-0.7,0.1-1.4-0.4-1.6-1.1c0-0.1,0-0.2,0-0.3c0-0.1,0-0.1-0.1-0.2
		c-1.3-0.8-2.7-1.5-4-2.3c-0.1,0-0.1,0-0.2,0c-0.7,0.4-1.6,0.2-2-0.5c-0.1-0.1-0.2-0.3-0.2-0.5c-0.1-0.6,0.2-1.2,0.7-1.5
		c0.1,0,0.1-0.1,0.1-0.2c0-1.5,0-3.1,0-4.6c0-0.1,0-0.2-0.1-0.2c-0.7-0.4-1-1.3-0.6-2c0.2-0.4,0.6-0.7,1.1-0.7c0.3-0.1,0.7,0,1,0.2
		c0.1,0,0.1,0,0.2,0c1.3-0.8,2.7-1.5,4-2.3C8.9,2.7,9,2.6,9,2.5c0-0.8,0.6-1.5,1.5-1.5c0,0,0,0,0.1,0c0.7,0,1.3,0.6,1.4,1.2
		c0,0.1,0,0.1,0,0.2c0,0.2,0.1,0.3,0.2,0.3C13.4,3.5,14.7,4.3,16,5c0.1,0.1,0.2,0.1,0.2,0c0.7-0.4,1.6-0.2,2,0.5
		c0.1,0.1,0.1,0.3,0.2,0.5C18.4,6.1,18.4,6.2,18.4,6.3L18.4,6.3z M6.9,11.6C6.9,11.6,6.9,11.6,6.9,11.6c-0.8,0.4-1.5,0.9-2.2,1.3
		c-0.1,0-0.1,0-0.2,0c-0.2-0.1-0.4-0.2-0.6-0.2c-0.7,0-1.2,0.5-1.2,1.1c0,0.7,0.5,1.2,1.1,1.2c0,0,0.1,0,0.1,0
		c0.7,0,1.2-0.5,1.2-1.2c0,0,0,0,0,0c0-0.1,0-0.2,0.1-0.2c0.8-0.4,1.6-0.9,2.3-1.3c0.1,0,0.1,0,0.2,0c0.5,0.2,1,0.3,1.5,0.1
		c0.1,0,0.1,0,0.2,0c0.2,0.1,0.3,0.1,0.4,0.2c0.1,0,0.1,0.1,0.1,0.2c0,1.2,0,2.4,0,3.6c0,0.1,0,0.1-0.1,0.2
		c-0.5,0.2-0.7,0.7-0.6,1.2c0.1,0.6,0.7,1.1,1.4,1c0.6-0.1,0.9-0.5,1-1.1c0.1-0.5-0.2-1-0.6-1.2c-0.1,0-0.1-0.1-0.1-0.2
		c0-1.2,0-2.4,0-3.5c0-0.1,0-0.1,0.1-0.1c0.2,0,0.5-0.1,0.7-0.2c0.1,0,0.2,0,0.3,0c0.5,0.2,1.1,0.2,1.5-0.1c0.1,0,0.1,0,0.2,0
		c0.6,0.4,1.3,0.7,1.9,1.1c0.1,0,0.2,0.1,0.1,0.2c0,0.7,0.5,1.2,1.2,1.2c0.7,0,1.2-0.5,1.2-1.2c0-0.7-0.5-1.2-1.2-1.2
		c-0.2,0-0.5,0.1-0.7,0.2c-0.1,0.1-0.1,0.1-0.2,0c-0.6-0.4-1.2-0.7-1.8-1.1c-0.1-0.1-0.1-0.1-0.1-0.2c0.2-0.6,0.1-1.2-0.4-1.7
		c-0.2-0.3-0.4-0.6-0.6-0.9c0-0.1,0-0.1,0.1-0.2c0.9-0.5,1.9-1.1,2.8-1.6c0.1,0,0.1,0,0.2,0c0.3,0.2,0.6,0.2,0.9,0.2
		c0.6-0.1,1-0.7,1-1.3c-0.1-0.7-0.7-1.2-1.4-1.1c-0.6,0.1-1,0.6-1,1.2c0,0.1,0,0.2-0.1,0.2c-0.9,0.5-1.9,1.1-2.8,1.6
		c-0.1,0-0.1,0-0.2,0c0,0,0,0,0,0c-0.4-0.4-1-0.7-1.6-0.7c-0.2,0-0.2,0-0.2-0.2c0-1.1,0-2.2,0-3.3c0-0.1,0.1-0.3,0.2-0.3
		c0.5-0.3,0.7-0.9,0.5-1.5c-0.2-0.6-0.8-0.8-1.4-0.7C9.6,1.5,9.3,1.9,9.2,2.4c0,0.5,0.2,0.9,0.6,1.1c0.1,0,0.1,0.1,0.1,0.2
		c0,1.2,0,2.4,0,3.7c0,0.1,0,0.1-0.1,0.2C9.6,7.7,9.4,7.8,9.2,7.9C9,8.1,8.7,8.2,8.4,8.2c0,0-0.1,0-0.1,0c-0.1,0-0.2,0-0.2,0
		C7.2,7.7,6.2,7.1,5.3,6.6C5.1,6.5,5.1,6.4,5.1,6.3c0-0.1,0-0.1,0-0.2C4.9,5.4,4.3,5,3.7,5.1C3,5.2,2.6,5.8,2.7,6.5
		c0.1,0.6,0.7,1.1,1.4,1c0.2,0,0.3-0.1,0.4-0.2c0.1-0.1,0.2-0.1,0.2,0c0.7,0.4,1.4,0.8,2.1,1.2l0.4,0.2C6.4,9.6,6.4,10.5,6.9,11.6
		L6.9,11.6z"/>
	<path id="Shape-2" class="st1" d="M8.9,8.7c0.2,0,0.3,0,0.4-0.2c0.6-0.6,1.3-0.7,2.1-0.5c0.8,0.3,1.2,0.8,1.4,1.6
		c0,0.1,0.1,0.3,0.2,0.3c0.4,0.2,0.6,0.7,0.5,1.1c-0.1,0.5-0.4,0.9-0.9,1c-0.3,0-0.5,0-0.7-0.1c-0.1-0.1-0.2-0.1-0.3,0
		c-0.7,0.3-1.3,0.2-2-0.2c-0.1-0.1-0.2-0.1-0.3,0c-0.8,0.3-1.7-0.1-2-1c-0.3-0.8,0.1-1.7,1-2C8.5,8.8,8.7,8.7,8.9,8.7L8.9,8.7z"/>
	<path id="Shape-3" class="st1" d="M16.6,13.8c0-0.2,0.1-0.3,0.3-0.3c0,0,0,0,0,0c0.2,0,0.3,0.1,0.3,0.3c0,0.2-0.2,0.3-0.3,0.3
		C16.8,14.2,16.6,14,16.6,13.8C16.6,13.8,16.6,13.8,16.6,13.8z"/>
	<path id="Shape-4" class="st1" d="M10.1,2.5c0-0.2,0.2-0.3,0.3-0.3c0.2,0,0.3,0.2,0.3,0.3c0,0.2-0.2,0.3-0.3,0.3
		C10.2,2.8,10.1,2.7,10.1,2.5L10.1,2.5z"/>
	<path id="Shape-5" class="st1" d="M4.2,13.8c0,0.2-0.1,0.3-0.3,0.3c0,0,0,0,0,0c-0.2,0-0.3-0.2-0.3-0.3c0-0.2,0.2-0.3,0.3-0.3
		C4.1,13.5,4.2,13.6,4.2,13.8C4.2,13.8,4.2,13.8,4.2,13.8L4.2,13.8z"/>
	<path id="Shape-6" class="st1" d="M10.4,17.3c0.2,0,0.3,0.2,0.3,0.3s-0.2,0.3-0.3,0.3c-0.2,0-0.3-0.2-0.3-0.3
		C10.1,17.4,10.2,17.3,10.4,17.3C10.4,17.3,10.4,17.3,10.4,17.3z"/>
	<path id="Shape-7" class="st1" d="M3.9,6.6c-0.2,0-0.3-0.1-0.3-0.3C3.6,6.1,3.7,6,3.9,6c0.2,0,0.3,0.1,0.3,0.3
		C4.2,6.5,4.1,6.6,3.9,6.6z"/>
	<path id="Shape-8" class="st1" d="M17,6.6c-0.2,0-0.3-0.2-0.3-0.3S16.8,5.9,17,6c0.2,0,0.3,0.2,0.3,0.3C17.3,6.5,17.2,6.6,17,6.6z"
		/>
</g>
</svg>
