<?xml version="1.0" encoding="utf-8"?>
<!-- Generator: Adobe Illustrator 21.0.0, SVG Export Plug-In . SVG Version: 6.00 Build 0)  -->
<svg version="1.1" id="图层_1" xmlns="http://www.w3.org/2000/svg" xmlns:xlink="http://www.w3.org/1999/xlink" x="0px" y="0px"
	 viewBox="0 0 20 20" style="enable-background:new 0 0 20 20;" xml:space="preserve">
<style type="text/css">
	.st0{fill:#EF6C4F;}
	.st1{fill:#E6262D;}
	.st2{fill:url(#SVGID_1_);}
</style>
<title>rfgbsfgbfs</title>
<path class="st0" d="M16.5,11.4c-0.2-0.1-0.2-0.2-0.2-0.3c-0.3-0.6-0.7-1.1-1.2-1.5c-0.4-0.4-0.9-0.8-1.2-1.3
	c-0.3-0.5-0.6-1-0.5-1.6c0-0.4,0.2-0.7,0.4-1c0.1,0.1,0,0.2,0.1,0.4c0.1,0.7,0.6,1.2,1,1.8c0.6,0.7,1.1,1.5,1.4,2.4
	C16.4,10.5,16.5,11,16.5,11.4z"/>
<path class="st1" d="M9.8,17.8c0.5-0.1,0.9-0.2,1.3-0.5c0.6-0.4,1-0.9,0.9-1.7c0-0.1,0-0.1,0-0.1c0-0.1,0-0.1,0-0.1
	c0.1,0,0.1,0.1,0.2,0.1c0.1,0.1,0.2,0.3,0.2,0.5c0.1,0.5,0,0.9-0.3,1.3c-0.4,0.5-1,0.8-1.5,0.9c-0.3,0-0.6,0-0.9-0.1
	c-0.1,0-0.6-0.2-0.5-0.2S9.8,17.8,9.8,17.8z"/>
<path class="st0" d="M7.8,5.5c0,0.2-0.1,0.5-0.2,0.7c-0.2,0.4-0.5,0.7-0.8,1c-0.1,0-0.1,0.1-0.2,0.1c-0.1,0,0-0.1,0-0.2
	c0.1-0.2,0.1-0.4,0.2-0.7c0.1-0.6,0.1-1.3-0.2-1.9c0-0.1-0.1-0.1,0-0.2c0.1-0.1,0.1,0,0.2,0C7,4.5,7.3,4.7,7.6,5
	C7.7,5.1,7.7,5.3,7.8,5.5z"/>
<path class="st0" d="M11.3,9.3C11.5,9,11.8,8.8,12,8.5c0.2-0.2,0.4-0.4,0.4-0.7c0,0,0-0.1,0.1-0.1c0.1,0,0.1,0,0.1,0.1
	c0.1,0.2,0.1,0.4,0.2,0.6c0,0.2-0.1,0.5-0.3,0.6C12.1,9.1,11.7,9.2,11.3,9.3C11.4,9.3,11.3,9.3,11.3,9.3z"/>
<linearGradient id="SVGID_1_" gradientUnits="userSpaceOnUse" x1="10.3856" y1="15.8991" x2="10.4197" y2="3.9918" gradientTransform="matrix(1 0 0 -1 0 20.64)">
	<stop  offset="0" style="stop-color:#EF6C4F"/>
	<stop  offset="1" style="stop-color:#E6262D"/>
</linearGradient>
<path class="st2" d="M9.7-0.1c0,0,3.8,3.4,2.4,6.4s-4.3,4.9-4.9,7.4s0.4,4,2.1,5c1.7,1,4.8-1,4.3-4.3c-0.5-3.3-2.9-3.7-2.9-3.7
	s1.6-1.6,3.7-0.5s2.4,5.2,1.4,6.7c-0.1,0.2-1,2.7-4.3,3S6,18.6,5.2,17.2S3.6,12.1,7,7.8S9.7-0.1,9.7-0.1z"/>
<path class="st1" d="M5.1,7.1c-0.1-0.2,0.2,1-1,3c-1.1,2-0.4,3.1-0.4,3.1c0.2-1,0.6-2.1,1-3C5.4,8.7,5.4,7.8,5.1,7.1z"/>
</svg>
