<?xml version="1.0" encoding="utf-8"?>
<!-- Generator: Adobe Illustrator 21.0.0, SVG Export Plug-In . SVG Version: 6.00 Build 0)  -->
<svg version="1.1" id="图层_1" xmlns="http://www.w3.org/2000/svg" xmlns:xlink="http://www.w3.org/1999/xlink" x="0px" y="0px"
	 viewBox="0 0 20 20" style="enable-background:new 0 0 20 20;" xml:space="preserve">
<style type="text/css">
	.st0{fill:#26A17B;enable-background:new    ;}
	.st1{fill:#FFFFFF;}
</style>
<title>TetherLogo Copy 2</title>
<desc>Created with Sketch.</desc>
<g>
	<circle class="st0" cx="9.7" cy="10.7" r="8"/>
	<rect x="5.1" y="6.2" class="st1" width="9.3" height="2.3"/>
	<g>
		<path class="st1" d="M9.7,13.2c-1.5,0-3-0.1-4.1-0.4c-1.2-0.3-1.8-0.6-1.8-1s0.6-0.8,1.8-1c1.1-0.2,2.5-0.4,4.1-0.4
			c1.5,0,3,0.1,4.1,0.4c1.2,0.3,1.8,0.6,1.8,1s-0.6,0.8-1.8,1C12.7,13.1,11.3,13.2,9.7,13.2z M9.7,10.7c-3.4,0-5.5,0.6-5.5,1.1
			c0,0.4,2.1,1.1,5.5,1.1s5.5-0.6,5.5-1.1C15.3,11.4,13.2,10.7,9.7,10.7z"/>
	</g>
	<g>
		<path class="st1" d="M9.8,10.5c0.3,0,0.7,0,1,0V8.1H8.6v2.4C9,10.5,9.4,10.5,9.8,10.5z"/>
		<path class="st1" d="M10.8,12.6v-1.9c-0.3,0-0.7,0-1,0c-0.4,0-0.8,0-1.2,0v1.9c0.4,0,0.8,0,1.2,0C10.1,12.7,10.5,12.6,10.8,12.6z"
			/>
		<path class="st1" d="M9.8,12.9c-0.4,0-0.8,0-1.2,0v4.2h2.2v-4.2C10.5,12.9,10.1,12.9,9.8,12.9z"/>
	</g>
</g>
</svg>
