<?xml version="1.0" encoding="utf-8"?>
<!-- Generator: Adobe Illustrator 21.0.0, SVG Export Plug-In . SVG Version: 6.00 Build 0)  -->
<svg version="1.1" id="图层_1" xmlns="http://www.w3.org/2000/svg" xmlns:xlink="http://www.w3.org/1999/xlink" x="0px" y="0px"
	 viewBox="0 0 20 20" style="enable-background:new 0 0 20 20;" xml:space="preserve">
<style type="text/css">
	.st0{fill:#4A90E2;}
</style>
<title>图标</title>
<circle class="st0" cx="3.2" cy="11.7" r="1.2"/>
<path class="st0" d="M17,6c-0.6,0-1.2,0.5-1.2,1.2l0,0c0,0.9-0.1,1.2-1.2,1.2h-0.1c-0.6,0-1,0.5-1,1.1v0c0,0.9-0.2,1.1-1.2,1.1
	c0,0-0.1,0-0.1,0c-0.6,0.1-1,0.6-1,1.1c0,0.6,0.5,1.2,1.2,1.2l0,0c0.6,0,1.1-0.5,1.1-1.1v-0.1c0-0.8,0.3-1.1,1.1-1.2h0
	c0.6,0,1.1-0.5,1.1-1.1V9.4c0-0.8,0.3-1.2,1.2-1.2c0.6,0,1.2-0.5,1.2-1.1C18.1,6.5,17.6,6,17,6z M10.2,8.3L10.2,8.3
	c-1.1,0-1.2-0.2-1.2-1.2C8.9,6.5,8.4,6,7.8,6S6.6,6.5,6.6,7.1c0,0.9-0.1,1.1-1.2,1.1H5.4c-0.6,0-1,0.5-1,1.1c0,0.6,0.5,1.2,1.2,1.2
	l0,0c0.6,0,1.1-0.5,1.1-1.1V9.4c0-0.8,0.3-1.2,1.2-1.2s1.2,0.3,1.2,1.1c0,0.6,0.5,1.2,1.2,1.2l0,0c0.6,0,1.1-0.5,1.2-1.1
	c0,0,0,0,0,0C11.2,8.8,10.8,8.3,10.2,8.3z"/>
</svg>
