<?xml version="1.0" encoding="utf-8"?>
<!-- Generator: Adobe Illustrator 21.0.0, SVG Export Plug-In . SVG Version: 6.00 Build 0)  -->
<svg version="1.1" id="图层_1" xmlns="http://www.w3.org/2000/svg" xmlns:xlink="http://www.w3.org/1999/xlink" x="0px" y="0px"
	 viewBox="0 0 20 20" style="enable-background:new 0 0 20 20;" xml:space="preserve">
<style type="text/css">
	.st0{fill:#38AE50;}
	.st1{fill:#FFFFFF;}
</style>
<title>XZC</title>
<desc>Created with Sketch.</desc>
<g id="Page-1">
	<g id="Artboard" transform="translate(-414.000000, -6146.000000)">
		<g id="XZC" transform="translate(414.000000, 6146.000000)">
			<path id="Fill-410" class="st0" d="M18.5,9.9c0,4.4-3.6,8-8,8s-8-3.6-8-8s3.6-8,8-8S18.5,5.4,18.5,9.9"/>
			<path id="Fill-411" class="st1" d="M17.3,9.9c0,3.8-3.1,6.9-6.9,6.9c-3.8,0-6.9-3.1-6.9-6.9C3.6,6.1,6.7,3,10.5,3
				C14.2,3,17.3,6.1,17.3,9.9"/>
			<path id="Fill-412" class="st0" d="M13.1,11.2v1.3H8.7l5.5-5.5c0.1-0.1,0.2-0.2,0.3-0.3c0.1-0.2,0.1-0.4,0-0.5
				C14.3,6.1,14.2,6,14,5.9c-0.1-0.1-0.3-0.1-0.4,0H7.1c-0.3,0-0.6,0.3-0.6,0.6v0.1v0.1v1.9v2.7l2.7-2.7H7.8V7.2h4.4l-5.6,5.6
				c-0.2,0.2-0.2,0.5-0.1,0.8c0.1,0.2,0.3,0.3,0.5,0.3h6.7c0.3,0,0.6-0.3,0.6-0.6v-0.1v-0.1v-1.9V8.5l-2.7,2.7H13.1z"/>
		</g>
	</g>
</g>
</svg>
