<?xml version="1.0" encoding="utf-8"?>
<!-- Generator: Adobe Illustrator 21.0.0, SVG Export Plug-In . SVG Version: 6.00 Build 0)  -->
<svg version="1.1" id="图层_1" xmlns="http://www.w3.org/2000/svg" xmlns:xlink="http://www.w3.org/1999/xlink" x="0px" y="0px"
	 viewBox="0 0 20 20" style="enable-background:new 0 0 20 20;" xml:space="preserve">
<style type="text/css">
	.st0{fill:#6FC4C3;}
</style>
<title>图标</title>
<path class="st0" d="M6.2,5.7h7c2.5,0,4.5,2,4.5,4.5l0,0c0,2.5-2,4.5-4.5,4.5h-7c-2.5,0-4.5-2-4.5-4.5l0,0C1.7,7.7,3.7,5.7,6.2,5.7z
	 M4.4,11.7c0.8,1,1.9,1.2,3,0.6c0.7-0.4,1.1-1.2,1.2-1.9c0,0,0.3-1.4,0.5-1.9c0.2-0.6,0.6-0.8,0.6-0.8H6.5c-0.7,0-1.6,0-2.1,0.7
	C3.7,9.3,3.7,10.7,4.4,11.7z M15,8.6c-0.8-1-2-1.1-3-0.6c-0.7,0.4-1.1,1.2-1.2,1.9s-0.3,1.8-0.6,2.3c-0.2,0.4-0.4,0.5-0.4,0.5h3.1
	c0.7,0,1.6-0.1,2.1-0.7C15.7,10.9,15.7,9.6,15,8.6L15,8.6z"/>
</svg>
