<?xml version="1.0" encoding="utf-8"?>
<!-- Generator: Adobe Illustrator 21.0.0, SVG Export Plug-In . SVG Version: 6.00 Build 0)  -->
<svg version="1.1" id="图层_1" xmlns="http://www.w3.org/2000/svg" xmlns:xlink="http://www.w3.org/1999/xlink" x="0px" y="0px"
	 viewBox="0 0 20 20" style="enable-background:new 0 0 20 20;" xml:space="preserve">
<style type="text/css">
	.st0{fill:url(#SVGID_1_);}
</style>
<title>图标</title>
<linearGradient id="SVGID_1_" gradientUnits="userSpaceOnUse" x1="2246.0154" y1="23.7778" x2="2246.0154" y2="0.2555" gradientTransform="matrix(-1 0 0 -1 2256.3 20.64)">
	<stop  offset="0" style="stop-color:#B68C30"/>
	<stop  offset="2.000000e-02" style="stop-color:#F0C45A"/>
	<stop  offset="7.000000e-02" style="stop-color:#956E2A"/>
	<stop  offset="8.000000e-02" style="stop-color:#956E2A"/>
	<stop  offset="9.000000e-02" style="stop-color:#96702A"/>
	<stop  offset="9.000000e-02" style="stop-color:#97732B"/>
	<stop  offset="9.000000e-02" style="stop-color:#99732B"/>
	<stop  offset="0.1" style="stop-color:#9B752B"/>
	<stop  offset="0.1" style="stop-color:#9E772A"/>
	<stop  offset="0.11" style="stop-color:#A0782B"/>
	<stop  offset="0.11" style="stop-color:#A37C2D"/>
	<stop  offset="0.12" style="stop-color:#A57D2F"/>
	<stop  offset="0.12" style="stop-color:#A7802F"/>
	<stop  offset="0.13" style="stop-color:#AC832F"/>
	<stop  offset="0.13" style="stop-color:#AD852F"/>
	<stop  offset="0.13" style="stop-color:#B1872E"/>
	<stop  offset="0.14" style="stop-color:#B28B2F"/>
	<stop  offset="0.14" style="stop-color:#B68C30"/>
	<stop  offset="0.26" style="stop-color:#EFD872"/>
	<stop  offset="0.29" style="stop-color:#F2D76F"/>
	<stop  offset="0.32" style="stop-color:#F1D672"/>
	<stop  offset="0.35" style="stop-color:#F1D56C"/>
	<stop  offset="0.38" style="stop-color:#EED26A"/>
	<stop  offset="0.41" style="stop-color:#EED26A"/>
	<stop  offset="0.44" style="stop-color:#EED06A"/>
	<stop  offset="0.47" style="stop-color:#EFD066"/>
	<stop  offset="0.5" style="stop-color:#EFCD66"/>
	<stop  offset="0.52" style="stop-color:#EDCA64"/>
	<stop  offset="0.55" style="stop-color:#EFCB62"/>
	<stop  offset="0.58" style="stop-color:#EFCB62"/>
	<stop  offset="0.61" style="stop-color:#F0C85E"/>
	<stop  offset="0.64" style="stop-color:#EFC761"/>
	<stop  offset="0.67" style="stop-color:#F0C75E"/>
	<stop  offset="0.7" style="stop-color:#F0C75E"/>
	<stop  offset="0.73" style="stop-color:#F0C45A"/>
	<stop  offset="0.85" style="stop-color:#B68C30"/>
	<stop  offset="0.92" style="stop-color:#956E2A"/>
	<stop  offset="0.93" style="stop-color:#97732B"/>
	<stop  offset="0.93" style="stop-color:#99742B"/>
</linearGradient>
<path class="st0" d="M3.7,13.8c0-0.8,0.3-1.6,0.9-2.1L15.9,0.4c0.2-0.2,0.6-0.2,0.8,0c0.1,0.1,0.2,0.3,0.2,0.4v3.3
	c0,0.8-0.3,1.6-0.9,2.1L4.7,17.6c-0.2,0.2-0.6,0.2-0.8,0c-0.1-0.1-0.2-0.3-0.2-0.4V13.8z M7.8,2.2c-0.8,0-1.6,0.3-2.1,0.9L4.6,4.2
	C4,4.8,3.7,5.6,3.7,6.3v3.3c0,0.3,0.3,0.6,0.6,0.6c0.2,0,0.3-0.1,0.4-0.2l6.9-6.9c0.2-0.2,0.2-0.6,0-0.8c-0.1-0.1-0.3-0.2-0.4-0.2
	H7.8z M8.8,19.7c0.8,0,1.6-0.3,2.1-0.9l5-5c0.6-0.6,0.9-1.3,0.9-2.1V8.3c0-0.3-0.3-0.6-0.6-0.6c-0.2,0-0.3,0.1-0.4,0.2L5.1,18.7
	c-0.2,0.2-0.2,0.6,0,0.8c0.1,0.1,0.3,0.2,0.4,0.2L8.8,19.7z"/>
</svg>
